G04 #@! TF.GenerationSoftware,KiCad,Pcbnew,8.0.3*
G04 #@! TF.CreationDate,2024-06-15T19:26:40-05:00*
G04 #@! TF.ProjectId,Encoder Board,456e636f-6465-4722-9042-6f6172642e6b,0*
G04 #@! TF.SameCoordinates,Original*
G04 #@! TF.FileFunction,Legend,Bot*
G04 #@! TF.FilePolarity,Positive*
%FSLAX46Y46*%
G04 Gerber Fmt 4.6, Leading zero omitted, Abs format (unit mm)*
G04 Created by KiCad (PCBNEW 8.0.3) date 2024-06-15 19:26:40*
%MOMM*%
%LPD*%
G01*
G04 APERTURE LIST*
%ADD10C,0.160000*%
%ADD11C,0.120000*%
G04 APERTURE END LIST*
D10*
X125333333Y-111454299D02*
X125333333Y-112168584D01*
X125333333Y-112168584D02*
X125380952Y-112311441D01*
X125380952Y-112311441D02*
X125476190Y-112406680D01*
X125476190Y-112406680D02*
X125619047Y-112454299D01*
X125619047Y-112454299D02*
X125714285Y-112454299D01*
X124333333Y-112454299D02*
X124904761Y-112454299D01*
X124619047Y-112454299D02*
X124619047Y-111454299D01*
X124619047Y-111454299D02*
X124714285Y-111597156D01*
X124714285Y-111597156D02*
X124809523Y-111692394D01*
X124809523Y-111692394D02*
X124904761Y-111740013D01*
X136966666Y-115689060D02*
X137014285Y-115736680D01*
X137014285Y-115736680D02*
X137157142Y-115784299D01*
X137157142Y-115784299D02*
X137252380Y-115784299D01*
X137252380Y-115784299D02*
X137395237Y-115736680D01*
X137395237Y-115736680D02*
X137490475Y-115641441D01*
X137490475Y-115641441D02*
X137538094Y-115546203D01*
X137538094Y-115546203D02*
X137585713Y-115355727D01*
X137585713Y-115355727D02*
X137585713Y-115212870D01*
X137585713Y-115212870D02*
X137538094Y-115022394D01*
X137538094Y-115022394D02*
X137490475Y-114927156D01*
X137490475Y-114927156D02*
X137395237Y-114831918D01*
X137395237Y-114831918D02*
X137252380Y-114784299D01*
X137252380Y-114784299D02*
X137157142Y-114784299D01*
X137157142Y-114784299D02*
X137014285Y-114831918D01*
X137014285Y-114831918D02*
X136966666Y-114879537D01*
X136014285Y-115784299D02*
X136585713Y-115784299D01*
X136299999Y-115784299D02*
X136299999Y-114784299D01*
X136299999Y-114784299D02*
X136395237Y-114927156D01*
X136395237Y-114927156D02*
X136490475Y-115022394D01*
X136490475Y-115022394D02*
X136585713Y-115070013D01*
X128666666Y-106354299D02*
X128999999Y-105878108D01*
X129238094Y-106354299D02*
X129238094Y-105354299D01*
X129238094Y-105354299D02*
X128857142Y-105354299D01*
X128857142Y-105354299D02*
X128761904Y-105401918D01*
X128761904Y-105401918D02*
X128714285Y-105449537D01*
X128714285Y-105449537D02*
X128666666Y-105544775D01*
X128666666Y-105544775D02*
X128666666Y-105687632D01*
X128666666Y-105687632D02*
X128714285Y-105782870D01*
X128714285Y-105782870D02*
X128761904Y-105830489D01*
X128761904Y-105830489D02*
X128857142Y-105878108D01*
X128857142Y-105878108D02*
X129238094Y-105878108D01*
X128333332Y-105354299D02*
X127714285Y-105354299D01*
X127714285Y-105354299D02*
X128047618Y-105735251D01*
X128047618Y-105735251D02*
X127904761Y-105735251D01*
X127904761Y-105735251D02*
X127809523Y-105782870D01*
X127809523Y-105782870D02*
X127761904Y-105830489D01*
X127761904Y-105830489D02*
X127714285Y-105925727D01*
X127714285Y-105925727D02*
X127714285Y-106163822D01*
X127714285Y-106163822D02*
X127761904Y-106259060D01*
X127761904Y-106259060D02*
X127809523Y-106306680D01*
X127809523Y-106306680D02*
X127904761Y-106354299D01*
X127904761Y-106354299D02*
X128190475Y-106354299D01*
X128190475Y-106354299D02*
X128285713Y-106306680D01*
X128285713Y-106306680D02*
X128333332Y-106259060D01*
X137866666Y-108754299D02*
X138199999Y-108278108D01*
X138438094Y-108754299D02*
X138438094Y-107754299D01*
X138438094Y-107754299D02*
X138057142Y-107754299D01*
X138057142Y-107754299D02*
X137961904Y-107801918D01*
X137961904Y-107801918D02*
X137914285Y-107849537D01*
X137914285Y-107849537D02*
X137866666Y-107944775D01*
X137866666Y-107944775D02*
X137866666Y-108087632D01*
X137866666Y-108087632D02*
X137914285Y-108182870D01*
X137914285Y-108182870D02*
X137961904Y-108230489D01*
X137961904Y-108230489D02*
X138057142Y-108278108D01*
X138057142Y-108278108D02*
X138438094Y-108278108D01*
X137485713Y-107849537D02*
X137438094Y-107801918D01*
X137438094Y-107801918D02*
X137342856Y-107754299D01*
X137342856Y-107754299D02*
X137104761Y-107754299D01*
X137104761Y-107754299D02*
X137009523Y-107801918D01*
X137009523Y-107801918D02*
X136961904Y-107849537D01*
X136961904Y-107849537D02*
X136914285Y-107944775D01*
X136914285Y-107944775D02*
X136914285Y-108040013D01*
X136914285Y-108040013D02*
X136961904Y-108182870D01*
X136961904Y-108182870D02*
X137533332Y-108754299D01*
X137533332Y-108754299D02*
X136914285Y-108754299D01*
X133289060Y-113433333D02*
X133336680Y-113385714D01*
X133336680Y-113385714D02*
X133384299Y-113242857D01*
X133384299Y-113242857D02*
X133384299Y-113147619D01*
X133384299Y-113147619D02*
X133336680Y-113004762D01*
X133336680Y-113004762D02*
X133241441Y-112909524D01*
X133241441Y-112909524D02*
X133146203Y-112861905D01*
X133146203Y-112861905D02*
X132955727Y-112814286D01*
X132955727Y-112814286D02*
X132812870Y-112814286D01*
X132812870Y-112814286D02*
X132622394Y-112861905D01*
X132622394Y-112861905D02*
X132527156Y-112909524D01*
X132527156Y-112909524D02*
X132431918Y-113004762D01*
X132431918Y-113004762D02*
X132384299Y-113147619D01*
X132384299Y-113147619D02*
X132384299Y-113242857D01*
X132384299Y-113242857D02*
X132431918Y-113385714D01*
X132431918Y-113385714D02*
X132479537Y-113433333D01*
X132479537Y-113814286D02*
X132431918Y-113861905D01*
X132431918Y-113861905D02*
X132384299Y-113957143D01*
X132384299Y-113957143D02*
X132384299Y-114195238D01*
X132384299Y-114195238D02*
X132431918Y-114290476D01*
X132431918Y-114290476D02*
X132479537Y-114338095D01*
X132479537Y-114338095D02*
X132574775Y-114385714D01*
X132574775Y-114385714D02*
X132670013Y-114385714D01*
X132670013Y-114385714D02*
X132812870Y-114338095D01*
X132812870Y-114338095D02*
X133384299Y-113766667D01*
X133384299Y-113766667D02*
X133384299Y-114385714D01*
X138466666Y-106354299D02*
X138799999Y-105878108D01*
X139038094Y-106354299D02*
X139038094Y-105354299D01*
X139038094Y-105354299D02*
X138657142Y-105354299D01*
X138657142Y-105354299D02*
X138561904Y-105401918D01*
X138561904Y-105401918D02*
X138514285Y-105449537D01*
X138514285Y-105449537D02*
X138466666Y-105544775D01*
X138466666Y-105544775D02*
X138466666Y-105687632D01*
X138466666Y-105687632D02*
X138514285Y-105782870D01*
X138514285Y-105782870D02*
X138561904Y-105830489D01*
X138561904Y-105830489D02*
X138657142Y-105878108D01*
X138657142Y-105878108D02*
X139038094Y-105878108D01*
X137514285Y-106354299D02*
X138085713Y-106354299D01*
X137799999Y-106354299D02*
X137799999Y-105354299D01*
X137799999Y-105354299D02*
X137895237Y-105497156D01*
X137895237Y-105497156D02*
X137990475Y-105592394D01*
X137990475Y-105592394D02*
X138085713Y-105640013D01*
X132766666Y-110154299D02*
X133099999Y-109678108D01*
X133338094Y-110154299D02*
X133338094Y-109154299D01*
X133338094Y-109154299D02*
X132957142Y-109154299D01*
X132957142Y-109154299D02*
X132861904Y-109201918D01*
X132861904Y-109201918D02*
X132814285Y-109249537D01*
X132814285Y-109249537D02*
X132766666Y-109344775D01*
X132766666Y-109344775D02*
X132766666Y-109487632D01*
X132766666Y-109487632D02*
X132814285Y-109582870D01*
X132814285Y-109582870D02*
X132861904Y-109630489D01*
X132861904Y-109630489D02*
X132957142Y-109678108D01*
X132957142Y-109678108D02*
X133338094Y-109678108D01*
X131909523Y-109487632D02*
X131909523Y-110154299D01*
X132147618Y-109106680D02*
X132385713Y-109820965D01*
X132385713Y-109820965D02*
X131766666Y-109820965D01*
D11*
G04 #@! TO.C,J1*
X124390000Y-114260000D02*
X124390000Y-115810000D01*
X124390000Y-115810000D02*
X124890000Y-116209999D01*
X124390000Y-117390000D02*
X124390000Y-118940000D01*
X124890000Y-116209999D02*
X124890000Y-116990001D01*
X124890000Y-116990001D02*
X124390000Y-117390000D01*
X128910000Y-113190000D02*
X125860001Y-113190000D01*
X128910000Y-114240000D02*
X128910000Y-113190000D01*
X128910000Y-118960000D02*
X128910000Y-120010000D01*
X128910000Y-120010000D02*
X125860001Y-120010000D01*
X129100001Y-118960000D02*
X128910000Y-118960000D01*
X129600000Y-118400000D02*
X129953553Y-118650000D01*
X129953553Y-118150000D02*
X129600000Y-118400000D01*
X129953553Y-118650000D02*
X129953553Y-118150000D01*
G04 #@! TO.C,C1*
X136946267Y-113390000D02*
X136653733Y-113390000D01*
X136946267Y-114410000D02*
X136653733Y-114410000D01*
G04 #@! TO.C,R3*
X130845276Y-105377500D02*
X131354724Y-105377500D01*
X130845276Y-106422500D02*
X131354724Y-106422500D01*
G04 #@! TO.C,R2*
X135377500Y-109445276D02*
X135377500Y-109954724D01*
X136422500Y-109445276D02*
X136422500Y-109954724D01*
G04 #@! TO.C,C2*
X130990000Y-113453733D02*
X130990000Y-113746267D01*
X132010000Y-113453733D02*
X132010000Y-113746267D01*
G04 #@! TO.C,R1*
X135954724Y-105377500D02*
X135445276Y-105377500D01*
X135954724Y-106422500D02*
X135445276Y-106422500D01*
G04 #@! TO.C,R4*
X130377500Y-109445276D02*
X130377500Y-109954724D01*
X131422500Y-109445276D02*
X131422500Y-109954724D01*
G04 #@! TD*
M02*
