G04 #@! TF.GenerationSoftware,KiCad,Pcbnew,8.0.3*
G04 #@! TF.CreationDate,2024-06-15T19:26:40-05:00*
G04 #@! TF.ProjectId,Encoder Board,456e636f-6465-4722-9042-6f6172642e6b,0*
G04 #@! TF.SameCoordinates,Original*
G04 #@! TF.FileFunction,Copper,L4,Bot*
G04 #@! TF.FilePolarity,Positive*
%FSLAX46Y46*%
G04 Gerber Fmt 4.6, Leading zero omitted, Abs format (unit mm)*
G04 Created by KiCad (PCBNEW 8.0.3) date 2024-06-15 19:26:40*
%MOMM*%
%LPD*%
G01*
G04 APERTURE LIST*
G04 Aperture macros list*
%AMRoundRect*
0 Rectangle with rounded corners*
0 $1 Rounding radius*
0 $2 $3 $4 $5 $6 $7 $8 $9 X,Y pos of 4 corners*
0 Add a 4 corners polygon primitive as box body*
4,1,4,$2,$3,$4,$5,$6,$7,$8,$9,$2,$3,0*
0 Add four circle primitives for the rounded corners*
1,1,$1+$1,$2,$3*
1,1,$1+$1,$4,$5*
1,1,$1+$1,$6,$7*
1,1,$1+$1,$8,$9*
0 Add four rect primitives between the rounded corners*
20,1,$1+$1,$2,$3,$4,$5,0*
20,1,$1+$1,$4,$5,$6,$7,0*
20,1,$1+$1,$6,$7,$8,$9,0*
20,1,$1+$1,$8,$9,$2,$3,0*%
G04 Aperture macros list end*
%ADD10C,0.100000*%
G04 #@! TA.AperFunction,NonConductor*
%ADD11C,0.100000*%
G04 #@! TD*
G04 #@! TA.AperFunction,EtchedComponent*
%ADD12C,0.010000*%
G04 #@! TD*
G04 #@! TA.AperFunction,ComponentPad*
%ADD13RoundRect,0.250000X-0.550000X0.550000X-0.550000X-0.550000X0.550000X-0.550000X0.550000X0.550000X0*%
G04 #@! TD*
G04 #@! TA.AperFunction,ComponentPad*
%ADD14C,1.600000*%
G04 #@! TD*
G04 #@! TA.AperFunction,ComponentPad*
%ADD15O,2.400000X3.100000*%
G04 #@! TD*
G04 #@! TA.AperFunction,SMDPad,CuDef*
%ADD16RoundRect,0.150000X0.275000X-0.150000X0.275000X0.150000X-0.275000X0.150000X-0.275000X-0.150000X0*%
G04 #@! TD*
G04 #@! TA.AperFunction,SMDPad,CuDef*
%ADD17RoundRect,0.187500X0.362500X-0.187500X0.362500X0.187500X-0.362500X0.187500X-0.362500X-0.187500X0*%
G04 #@! TD*
G04 #@! TA.AperFunction,SMDPad,CuDef*
%ADD18RoundRect,0.237500X-0.300000X-0.237500X0.300000X-0.237500X0.300000X0.237500X-0.300000X0.237500X0*%
G04 #@! TD*
G04 #@! TA.AperFunction,SMDPad,CuDef*
%ADD19RoundRect,0.237500X0.250000X0.237500X-0.250000X0.237500X-0.250000X-0.237500X0.250000X-0.237500X0*%
G04 #@! TD*
G04 #@! TA.AperFunction,SMDPad,CuDef*
%ADD20RoundRect,0.237500X0.237500X-0.250000X0.237500X0.250000X-0.237500X0.250000X-0.237500X-0.250000X0*%
G04 #@! TD*
G04 #@! TA.AperFunction,SMDPad,CuDef*
%ADD21RoundRect,0.237500X0.237500X-0.300000X0.237500X0.300000X-0.237500X0.300000X-0.237500X-0.300000X0*%
G04 #@! TD*
G04 #@! TA.AperFunction,SMDPad,CuDef*
%ADD22RoundRect,0.237500X-0.250000X-0.237500X0.250000X-0.237500X0.250000X0.237500X-0.250000X0.237500X0*%
G04 #@! TD*
G04 #@! TA.AperFunction,Conductor*
%ADD23C,0.400000*%
G04 #@! TD*
G04 APERTURE END LIST*
D10*
D11*
X124375836Y-102161027D02*
X124375836Y-102399122D01*
X124518693Y-102113408D02*
X124018693Y-102280074D01*
X124018693Y-102280074D02*
X124518693Y-102446741D01*
X124518693Y-102613407D02*
X124018693Y-102613407D01*
X124518693Y-102827693D02*
X124256788Y-102827693D01*
X124256788Y-102827693D02*
X124209169Y-102803883D01*
X124209169Y-102803883D02*
X124185360Y-102756264D01*
X124185360Y-102756264D02*
X124185360Y-102684836D01*
X124185360Y-102684836D02*
X124209169Y-102637217D01*
X124209169Y-102637217D02*
X124232979Y-102613407D01*
X124494884Y-103041979D02*
X124518693Y-103089598D01*
X124518693Y-103089598D02*
X124518693Y-103184836D01*
X124518693Y-103184836D02*
X124494884Y-103232455D01*
X124494884Y-103232455D02*
X124447264Y-103256264D01*
X124447264Y-103256264D02*
X124423455Y-103256264D01*
X124423455Y-103256264D02*
X124375836Y-103232455D01*
X124375836Y-103232455D02*
X124352026Y-103184836D01*
X124352026Y-103184836D02*
X124352026Y-103113407D01*
X124352026Y-103113407D02*
X124328217Y-103065788D01*
X124328217Y-103065788D02*
X124280598Y-103041979D01*
X124280598Y-103041979D02*
X124256788Y-103041979D01*
X124256788Y-103041979D02*
X124209169Y-103065788D01*
X124209169Y-103065788D02*
X124185360Y-103113407D01*
X124185360Y-103113407D02*
X124185360Y-103184836D01*
X124185360Y-103184836D02*
X124209169Y-103232455D01*
X124518693Y-103541979D02*
X124494884Y-103494360D01*
X124494884Y-103494360D02*
X124471074Y-103470550D01*
X124471074Y-103470550D02*
X124423455Y-103446741D01*
X124423455Y-103446741D02*
X124280598Y-103446741D01*
X124280598Y-103446741D02*
X124232979Y-103470550D01*
X124232979Y-103470550D02*
X124209169Y-103494360D01*
X124209169Y-103494360D02*
X124185360Y-103541979D01*
X124185360Y-103541979D02*
X124185360Y-103613407D01*
X124185360Y-103613407D02*
X124209169Y-103661026D01*
X124209169Y-103661026D02*
X124232979Y-103684836D01*
X124232979Y-103684836D02*
X124280598Y-103708645D01*
X124280598Y-103708645D02*
X124423455Y-103708645D01*
X124423455Y-103708645D02*
X124471074Y-103684836D01*
X124471074Y-103684836D02*
X124494884Y-103661026D01*
X124494884Y-103661026D02*
X124518693Y-103613407D01*
X124518693Y-103613407D02*
X124518693Y-103541979D01*
X124518693Y-103922931D02*
X124018693Y-103922931D01*
X124328217Y-103970550D02*
X124518693Y-104113407D01*
X124185360Y-104113407D02*
X124375836Y-103922931D01*
X124518693Y-104541979D02*
X124256788Y-104541979D01*
X124256788Y-104541979D02*
X124209169Y-104518169D01*
X124209169Y-104518169D02*
X124185360Y-104470550D01*
X124185360Y-104470550D02*
X124185360Y-104375312D01*
X124185360Y-104375312D02*
X124209169Y-104327693D01*
X124494884Y-104541979D02*
X124518693Y-104494360D01*
X124518693Y-104494360D02*
X124518693Y-104375312D01*
X124518693Y-104375312D02*
X124494884Y-104327693D01*
X124494884Y-104327693D02*
X124447264Y-104303884D01*
X124447264Y-104303884D02*
X124399645Y-104303884D01*
X124399645Y-104303884D02*
X124352026Y-104327693D01*
X124352026Y-104327693D02*
X124328217Y-104375312D01*
X124328217Y-104375312D02*
X124328217Y-104494360D01*
X124328217Y-104494360D02*
X124304407Y-104541979D01*
X124018693Y-104803884D02*
X124113931Y-104756265D01*
X124494884Y-104994360D02*
X124518693Y-105041979D01*
X124518693Y-105041979D02*
X124518693Y-105137217D01*
X124518693Y-105137217D02*
X124494884Y-105184836D01*
X124494884Y-105184836D02*
X124447264Y-105208645D01*
X124447264Y-105208645D02*
X124423455Y-105208645D01*
X124423455Y-105208645D02*
X124375836Y-105184836D01*
X124375836Y-105184836D02*
X124352026Y-105137217D01*
X124352026Y-105137217D02*
X124352026Y-105065788D01*
X124352026Y-105065788D02*
X124328217Y-105018169D01*
X124328217Y-105018169D02*
X124280598Y-104994360D01*
X124280598Y-104994360D02*
X124256788Y-104994360D01*
X124256788Y-104994360D02*
X124209169Y-105018169D01*
X124209169Y-105018169D02*
X124185360Y-105065788D01*
X124185360Y-105065788D02*
X124185360Y-105137217D01*
X124185360Y-105137217D02*
X124209169Y-105184836D01*
X124518693Y-105803883D02*
X124018693Y-105803883D01*
X124018693Y-105803883D02*
X124018693Y-105994359D01*
X124018693Y-105994359D02*
X124042503Y-106041978D01*
X124042503Y-106041978D02*
X124066312Y-106065788D01*
X124066312Y-106065788D02*
X124113931Y-106089597D01*
X124113931Y-106089597D02*
X124185360Y-106089597D01*
X124185360Y-106089597D02*
X124232979Y-106065788D01*
X124232979Y-106065788D02*
X124256788Y-106041978D01*
X124256788Y-106041978D02*
X124280598Y-105994359D01*
X124280598Y-105994359D02*
X124280598Y-105803883D01*
X124471074Y-106303883D02*
X124494884Y-106327693D01*
X124494884Y-106327693D02*
X124518693Y-106303883D01*
X124518693Y-106303883D02*
X124494884Y-106280074D01*
X124494884Y-106280074D02*
X124471074Y-106303883D01*
X124471074Y-106303883D02*
X124518693Y-106303883D01*
X124256788Y-106922930D02*
X124256788Y-107089597D01*
X124518693Y-107161025D02*
X124518693Y-106922930D01*
X124518693Y-106922930D02*
X124018693Y-106922930D01*
X124018693Y-106922930D02*
X124018693Y-107161025D01*
X124185360Y-107375311D02*
X124518693Y-107375311D01*
X124232979Y-107375311D02*
X124209169Y-107399121D01*
X124209169Y-107399121D02*
X124185360Y-107446740D01*
X124185360Y-107446740D02*
X124185360Y-107518168D01*
X124185360Y-107518168D02*
X124209169Y-107565787D01*
X124209169Y-107565787D02*
X124256788Y-107589597D01*
X124256788Y-107589597D02*
X124518693Y-107589597D01*
X124494884Y-108041978D02*
X124518693Y-107994359D01*
X124518693Y-107994359D02*
X124518693Y-107899121D01*
X124518693Y-107899121D02*
X124494884Y-107851502D01*
X124494884Y-107851502D02*
X124471074Y-107827692D01*
X124471074Y-107827692D02*
X124423455Y-107803883D01*
X124423455Y-107803883D02*
X124280598Y-107803883D01*
X124280598Y-107803883D02*
X124232979Y-107827692D01*
X124232979Y-107827692D02*
X124209169Y-107851502D01*
X124209169Y-107851502D02*
X124185360Y-107899121D01*
X124185360Y-107899121D02*
X124185360Y-107994359D01*
X124185360Y-107994359D02*
X124209169Y-108041978D01*
X124518693Y-108327692D02*
X124494884Y-108280073D01*
X124494884Y-108280073D02*
X124471074Y-108256263D01*
X124471074Y-108256263D02*
X124423455Y-108232454D01*
X124423455Y-108232454D02*
X124280598Y-108232454D01*
X124280598Y-108232454D02*
X124232979Y-108256263D01*
X124232979Y-108256263D02*
X124209169Y-108280073D01*
X124209169Y-108280073D02*
X124185360Y-108327692D01*
X124185360Y-108327692D02*
X124185360Y-108399120D01*
X124185360Y-108399120D02*
X124209169Y-108446739D01*
X124209169Y-108446739D02*
X124232979Y-108470549D01*
X124232979Y-108470549D02*
X124280598Y-108494358D01*
X124280598Y-108494358D02*
X124423455Y-108494358D01*
X124423455Y-108494358D02*
X124471074Y-108470549D01*
X124471074Y-108470549D02*
X124494884Y-108446739D01*
X124494884Y-108446739D02*
X124518693Y-108399120D01*
X124518693Y-108399120D02*
X124518693Y-108327692D01*
X124518693Y-108922930D02*
X124018693Y-108922930D01*
X124494884Y-108922930D02*
X124518693Y-108875311D01*
X124518693Y-108875311D02*
X124518693Y-108780073D01*
X124518693Y-108780073D02*
X124494884Y-108732454D01*
X124494884Y-108732454D02*
X124471074Y-108708644D01*
X124471074Y-108708644D02*
X124423455Y-108684835D01*
X124423455Y-108684835D02*
X124280598Y-108684835D01*
X124280598Y-108684835D02*
X124232979Y-108708644D01*
X124232979Y-108708644D02*
X124209169Y-108732454D01*
X124209169Y-108732454D02*
X124185360Y-108780073D01*
X124185360Y-108780073D02*
X124185360Y-108875311D01*
X124185360Y-108875311D02*
X124209169Y-108922930D01*
X124494884Y-109351501D02*
X124518693Y-109303882D01*
X124518693Y-109303882D02*
X124518693Y-109208644D01*
X124518693Y-109208644D02*
X124494884Y-109161025D01*
X124494884Y-109161025D02*
X124447264Y-109137216D01*
X124447264Y-109137216D02*
X124256788Y-109137216D01*
X124256788Y-109137216D02*
X124209169Y-109161025D01*
X124209169Y-109161025D02*
X124185360Y-109208644D01*
X124185360Y-109208644D02*
X124185360Y-109303882D01*
X124185360Y-109303882D02*
X124209169Y-109351501D01*
X124209169Y-109351501D02*
X124256788Y-109375311D01*
X124256788Y-109375311D02*
X124304407Y-109375311D01*
X124304407Y-109375311D02*
X124352026Y-109137216D01*
X124518693Y-109589596D02*
X124185360Y-109589596D01*
X124280598Y-109589596D02*
X124232979Y-109613406D01*
X124232979Y-109613406D02*
X124209169Y-109637215D01*
X124209169Y-109637215D02*
X124185360Y-109684834D01*
X124185360Y-109684834D02*
X124185360Y-109732453D01*
X125323665Y-102470550D02*
X125085570Y-102303884D01*
X125323665Y-102184836D02*
X124823665Y-102184836D01*
X124823665Y-102184836D02*
X124823665Y-102375312D01*
X124823665Y-102375312D02*
X124847475Y-102422931D01*
X124847475Y-102422931D02*
X124871284Y-102446741D01*
X124871284Y-102446741D02*
X124918903Y-102470550D01*
X124918903Y-102470550D02*
X124990332Y-102470550D01*
X124990332Y-102470550D02*
X125037951Y-102446741D01*
X125037951Y-102446741D02*
X125061760Y-102422931D01*
X125061760Y-102422931D02*
X125085570Y-102375312D01*
X125085570Y-102375312D02*
X125085570Y-102184836D01*
X125299856Y-102875312D02*
X125323665Y-102827693D01*
X125323665Y-102827693D02*
X125323665Y-102732455D01*
X125323665Y-102732455D02*
X125299856Y-102684836D01*
X125299856Y-102684836D02*
X125252236Y-102661027D01*
X125252236Y-102661027D02*
X125061760Y-102661027D01*
X125061760Y-102661027D02*
X125014141Y-102684836D01*
X125014141Y-102684836D02*
X124990332Y-102732455D01*
X124990332Y-102732455D02*
X124990332Y-102827693D01*
X124990332Y-102827693D02*
X125014141Y-102875312D01*
X125014141Y-102875312D02*
X125061760Y-102899122D01*
X125061760Y-102899122D02*
X125109379Y-102899122D01*
X125109379Y-102899122D02*
X125156998Y-102661027D01*
X124990332Y-103065788D02*
X125323665Y-103184836D01*
X125323665Y-103184836D02*
X124990332Y-103303883D01*
X124823665Y-103970549D02*
X124823665Y-104018168D01*
X124823665Y-104018168D02*
X124847475Y-104065787D01*
X124847475Y-104065787D02*
X124871284Y-104089597D01*
X124871284Y-104089597D02*
X124918903Y-104113406D01*
X124918903Y-104113406D02*
X125014141Y-104137216D01*
X125014141Y-104137216D02*
X125133189Y-104137216D01*
X125133189Y-104137216D02*
X125228427Y-104113406D01*
X125228427Y-104113406D02*
X125276046Y-104089597D01*
X125276046Y-104089597D02*
X125299856Y-104065787D01*
X125299856Y-104065787D02*
X125323665Y-104018168D01*
X125323665Y-104018168D02*
X125323665Y-103970549D01*
X125323665Y-103970549D02*
X125299856Y-103922930D01*
X125299856Y-103922930D02*
X125276046Y-103899121D01*
X125276046Y-103899121D02*
X125228427Y-103875311D01*
X125228427Y-103875311D02*
X125133189Y-103851502D01*
X125133189Y-103851502D02*
X125014141Y-103851502D01*
X125014141Y-103851502D02*
X124918903Y-103875311D01*
X124918903Y-103875311D02*
X124871284Y-103899121D01*
X124871284Y-103899121D02*
X124847475Y-103922930D01*
X124847475Y-103922930D02*
X124823665Y-103970549D01*
X126128637Y-102184836D02*
X125628637Y-102184836D01*
X126081018Y-102422931D02*
X126104828Y-102446741D01*
X126104828Y-102446741D02*
X126128637Y-102422931D01*
X126128637Y-102422931D02*
X126104828Y-102399122D01*
X126104828Y-102399122D02*
X126081018Y-102422931D01*
X126081018Y-102422931D02*
X126128637Y-102422931D01*
X126128637Y-102946740D02*
X125890542Y-102780074D01*
X126128637Y-102661026D02*
X125628637Y-102661026D01*
X125628637Y-102661026D02*
X125628637Y-102851502D01*
X125628637Y-102851502D02*
X125652447Y-102899121D01*
X125652447Y-102899121D02*
X125676256Y-102922931D01*
X125676256Y-102922931D02*
X125723875Y-102946740D01*
X125723875Y-102946740D02*
X125795304Y-102946740D01*
X125795304Y-102946740D02*
X125842923Y-102922931D01*
X125842923Y-102922931D02*
X125866732Y-102899121D01*
X125866732Y-102899121D02*
X125890542Y-102851502D01*
X125890542Y-102851502D02*
X125890542Y-102661026D01*
X126104828Y-103351502D02*
X126128637Y-103303883D01*
X126128637Y-103303883D02*
X126128637Y-103208645D01*
X126128637Y-103208645D02*
X126104828Y-103161026D01*
X126104828Y-103161026D02*
X126057208Y-103137217D01*
X126057208Y-103137217D02*
X125866732Y-103137217D01*
X125866732Y-103137217D02*
X125819113Y-103161026D01*
X125819113Y-103161026D02*
X125795304Y-103208645D01*
X125795304Y-103208645D02*
X125795304Y-103303883D01*
X125795304Y-103303883D02*
X125819113Y-103351502D01*
X125819113Y-103351502D02*
X125866732Y-103375312D01*
X125866732Y-103375312D02*
X125914351Y-103375312D01*
X125914351Y-103375312D02*
X125961970Y-103137217D01*
X126128637Y-103541978D02*
X125795304Y-103803883D01*
X125795304Y-103541978D02*
X126128637Y-103803883D01*
X126433609Y-102327693D02*
X126790752Y-102327693D01*
X126790752Y-102327693D02*
X126862180Y-102303884D01*
X126862180Y-102303884D02*
X126909800Y-102256265D01*
X126909800Y-102256265D02*
X126933609Y-102184836D01*
X126933609Y-102184836D02*
X126933609Y-102137217D01*
X126600276Y-102780074D02*
X126933609Y-102780074D01*
X126600276Y-102565788D02*
X126862180Y-102565788D01*
X126862180Y-102565788D02*
X126909800Y-102589598D01*
X126909800Y-102589598D02*
X126933609Y-102637217D01*
X126933609Y-102637217D02*
X126933609Y-102708645D01*
X126933609Y-102708645D02*
X126909800Y-102756264D01*
X126909800Y-102756264D02*
X126885990Y-102780074D01*
X126600276Y-103018169D02*
X126933609Y-103018169D01*
X126647895Y-103018169D02*
X126624085Y-103041979D01*
X126624085Y-103041979D02*
X126600276Y-103089598D01*
X126600276Y-103089598D02*
X126600276Y-103161026D01*
X126600276Y-103161026D02*
X126624085Y-103208645D01*
X126624085Y-103208645D02*
X126671704Y-103232455D01*
X126671704Y-103232455D02*
X126933609Y-103232455D01*
X126909800Y-103661026D02*
X126933609Y-103613407D01*
X126933609Y-103613407D02*
X126933609Y-103518169D01*
X126933609Y-103518169D02*
X126909800Y-103470550D01*
X126909800Y-103470550D02*
X126862180Y-103446741D01*
X126862180Y-103446741D02*
X126671704Y-103446741D01*
X126671704Y-103446741D02*
X126624085Y-103470550D01*
X126624085Y-103470550D02*
X126600276Y-103518169D01*
X126600276Y-103518169D02*
X126600276Y-103613407D01*
X126600276Y-103613407D02*
X126624085Y-103661026D01*
X126624085Y-103661026D02*
X126671704Y-103684836D01*
X126671704Y-103684836D02*
X126719323Y-103684836D01*
X126719323Y-103684836D02*
X126766942Y-103446741D01*
X126481228Y-104256264D02*
X126457419Y-104280073D01*
X126457419Y-104280073D02*
X126433609Y-104327692D01*
X126433609Y-104327692D02*
X126433609Y-104446740D01*
X126433609Y-104446740D02*
X126457419Y-104494359D01*
X126457419Y-104494359D02*
X126481228Y-104518168D01*
X126481228Y-104518168D02*
X126528847Y-104541978D01*
X126528847Y-104541978D02*
X126576466Y-104541978D01*
X126576466Y-104541978D02*
X126647895Y-104518168D01*
X126647895Y-104518168D02*
X126933609Y-104232454D01*
X126933609Y-104232454D02*
X126933609Y-104541978D01*
X126600276Y-104970549D02*
X126933609Y-104970549D01*
X126409800Y-104851501D02*
X126766942Y-104732454D01*
X126766942Y-104732454D02*
X126766942Y-105041977D01*
D12*
G04 #@! TO.C,G\u002A\u002A\u002A*
X127396901Y-105864607D02*
X127460969Y-105891740D01*
X127520217Y-105944991D01*
X127573871Y-106023819D01*
X127621159Y-106127695D01*
X127661308Y-106256084D01*
X127669272Y-106289464D01*
X127684930Y-106365794D01*
X127701847Y-106459059D01*
X127718876Y-106562192D01*
X127734873Y-106668124D01*
X127748693Y-106769787D01*
X127759189Y-106860111D01*
X127760353Y-106872470D01*
X127764616Y-106945940D01*
X127766643Y-107036000D01*
X127766571Y-107135186D01*
X127764536Y-107236037D01*
X127760673Y-107331088D01*
X127755119Y-107412878D01*
X127748009Y-107473945D01*
X127744306Y-107495853D01*
X127703484Y-107671039D01*
X127646239Y-107826726D01*
X127573257Y-107961615D01*
X127485224Y-108074410D01*
X127382826Y-108163817D01*
X127374669Y-108169571D01*
X127316763Y-108209400D01*
X127280783Y-108231645D01*
X127266426Y-108236086D01*
X127273390Y-108222509D01*
X127301373Y-108190702D01*
X127350073Y-108140444D01*
X127370050Y-108119854D01*
X127484180Y-107981691D01*
X127574267Y-107831482D01*
X127643256Y-107664445D01*
X127658026Y-107618691D01*
X127673934Y-107559991D01*
X127684288Y-107502948D01*
X127690749Y-107437603D01*
X127694976Y-107354000D01*
X127695902Y-107326698D01*
X127696270Y-107221813D01*
X127689556Y-107134954D01*
X127674315Y-107058234D01*
X127649100Y-106983764D01*
X127612468Y-106903655D01*
X127564731Y-106823228D01*
X127475318Y-106715407D01*
X127362770Y-106616766D01*
X127229771Y-106529558D01*
X127079005Y-106456034D01*
X127074154Y-106454018D01*
X127028867Y-106435157D01*
X126996003Y-106421384D01*
X126982390Y-106415559D01*
X126982824Y-106410252D01*
X126988684Y-106383187D01*
X126999695Y-106338492D01*
X127014427Y-106282123D01*
X127035238Y-106212008D01*
X127081350Y-106095430D01*
X127135198Y-106002191D01*
X127195650Y-105934462D01*
X127257389Y-105890813D01*
X127328783Y-105864120D01*
X127396901Y-105864607D01*
G04 #@! TA.AperFunction,EtchedComponent*
G36*
X127396901Y-105864607D02*
G01*
X127460969Y-105891740D01*
X127520217Y-105944991D01*
X127573871Y-106023819D01*
X127621159Y-106127695D01*
X127661308Y-106256084D01*
X127669272Y-106289464D01*
X127684930Y-106365794D01*
X127701847Y-106459059D01*
X127718876Y-106562192D01*
X127734873Y-106668124D01*
X127748693Y-106769787D01*
X127759189Y-106860111D01*
X127760353Y-106872470D01*
X127764616Y-106945940D01*
X127766643Y-107036000D01*
X127766571Y-107135186D01*
X127764536Y-107236037D01*
X127760673Y-107331088D01*
X127755119Y-107412878D01*
X127748009Y-107473945D01*
X127744306Y-107495853D01*
X127703484Y-107671039D01*
X127646239Y-107826726D01*
X127573257Y-107961615D01*
X127485224Y-108074410D01*
X127382826Y-108163817D01*
X127374669Y-108169571D01*
X127316763Y-108209400D01*
X127280783Y-108231645D01*
X127266426Y-108236086D01*
X127273390Y-108222509D01*
X127301373Y-108190702D01*
X127350073Y-108140444D01*
X127370050Y-108119854D01*
X127484180Y-107981691D01*
X127574267Y-107831482D01*
X127643256Y-107664445D01*
X127658026Y-107618691D01*
X127673934Y-107559991D01*
X127684288Y-107502948D01*
X127690749Y-107437603D01*
X127694976Y-107354000D01*
X127695902Y-107326698D01*
X127696270Y-107221813D01*
X127689556Y-107134954D01*
X127674315Y-107058234D01*
X127649100Y-106983764D01*
X127612468Y-106903655D01*
X127564731Y-106823228D01*
X127475318Y-106715407D01*
X127362770Y-106616766D01*
X127229771Y-106529558D01*
X127079005Y-106456034D01*
X127074154Y-106454018D01*
X127028867Y-106435157D01*
X126996003Y-106421384D01*
X126982390Y-106415559D01*
X126982824Y-106410252D01*
X126988684Y-106383187D01*
X126999695Y-106338492D01*
X127014427Y-106282123D01*
X127035238Y-106212008D01*
X127081350Y-106095430D01*
X127135198Y-106002191D01*
X127195650Y-105934462D01*
X127257389Y-105890813D01*
X127328783Y-105864120D01*
X127396901Y-105864607D01*
G37*
G04 #@! TD.AperFunction*
X126166597Y-106356959D02*
X126220537Y-106359446D01*
X126287440Y-106362529D01*
X126397462Y-106372275D01*
X126401867Y-106372791D01*
X126499300Y-106386367D01*
X126604026Y-106404458D01*
X126708979Y-106425549D01*
X126807086Y-106448124D01*
X126891276Y-106470669D01*
X126954482Y-106491668D01*
X126993908Y-106507107D01*
X126943067Y-106551745D01*
X126918742Y-106575143D01*
X126864501Y-106651845D01*
X126835448Y-106740151D01*
X126831670Y-106839065D01*
X126853250Y-106947588D01*
X126900270Y-107064723D01*
X126961535Y-107168517D01*
X127055184Y-107278404D01*
X127172040Y-107373232D01*
X127284987Y-107438940D01*
X127409091Y-107484809D01*
X127539473Y-107505905D01*
X127546448Y-107506405D01*
X127594740Y-107511140D01*
X127628850Y-107516686D01*
X127641778Y-107521945D01*
X127641769Y-107522692D01*
X127636461Y-107553335D01*
X127623111Y-107602083D01*
X127604290Y-107661246D01*
X127582569Y-107723131D01*
X127560520Y-107780048D01*
X127540712Y-107824304D01*
X127460507Y-107963151D01*
X127363243Y-108090076D01*
X127255585Y-108192985D01*
X127138719Y-108270756D01*
X127013834Y-108322266D01*
X126946518Y-108336196D01*
X126857046Y-108344710D01*
X126759450Y-108346431D01*
X126663738Y-108341209D01*
X126579917Y-108328886D01*
X126498778Y-108311555D01*
X126498778Y-108219959D01*
X126498645Y-108209966D01*
X126482279Y-108108597D01*
X126440125Y-108011581D01*
X126374387Y-107921985D01*
X126287265Y-107842877D01*
X126180962Y-107777324D01*
X126147594Y-107760986D01*
X126104740Y-107743085D01*
X126065292Y-107733142D01*
X126018714Y-107728861D01*
X125954470Y-107727945D01*
X125916990Y-107728152D01*
X125865362Y-107730293D01*
X125829056Y-107736163D01*
X125799731Y-107747472D01*
X125769045Y-107765926D01*
X125753115Y-107777568D01*
X125716188Y-107812810D01*
X125692548Y-107847065D01*
X125690876Y-107850781D01*
X125676214Y-107878730D01*
X125666306Y-107890137D01*
X125665246Y-107889732D01*
X125648372Y-107877754D01*
X125615051Y-107851645D01*
X125569514Y-107814771D01*
X125515989Y-107770497D01*
X125506012Y-107762123D01*
X125363587Y-107631447D01*
X125245166Y-107500463D01*
X125151223Y-107370223D01*
X125089312Y-107254966D01*
X125259635Y-107254966D01*
X125278313Y-107311949D01*
X125301063Y-107345005D01*
X125326774Y-107367693D01*
X125351094Y-107376479D01*
X125395116Y-107381691D01*
X125437589Y-107377888D01*
X125465845Y-107365289D01*
X125480077Y-107342153D01*
X125483531Y-107298479D01*
X125467932Y-107249944D01*
X125434800Y-107204423D01*
X125415007Y-107186914D01*
X125366101Y-107161071D01*
X125321510Y-107158116D01*
X125285835Y-107174888D01*
X125263677Y-107208225D01*
X125259635Y-107254966D01*
X125089312Y-107254966D01*
X125082232Y-107241785D01*
X125038666Y-107116201D01*
X125021000Y-106994527D01*
X125029707Y-106877819D01*
X125053179Y-106804746D01*
X125919162Y-106804746D01*
X125935557Y-106858931D01*
X125975024Y-106909162D01*
X126039137Y-106952193D01*
X126102230Y-106975457D01*
X126188644Y-106987162D01*
X126276279Y-106980283D01*
X126358597Y-106956161D01*
X126429059Y-106916137D01*
X126481125Y-106861552D01*
X126506853Y-106805690D01*
X126510180Y-106746806D01*
X126489884Y-106692825D01*
X126448368Y-106646361D01*
X126388036Y-106610026D01*
X126311291Y-106586434D01*
X126220537Y-106578198D01*
X126217215Y-106578221D01*
X126128213Y-106588020D01*
X126052844Y-106613326D01*
X125992681Y-106650895D01*
X125949298Y-106697484D01*
X125924267Y-106749849D01*
X125919162Y-106804746D01*
X125053179Y-106804746D01*
X125065262Y-106767130D01*
X125071026Y-106754969D01*
X125136041Y-106654282D01*
X125225653Y-106566681D01*
X125321510Y-106504147D01*
X125339305Y-106492539D01*
X125476440Y-106432226D01*
X125636501Y-106386114D01*
X125706559Y-106374054D01*
X125804913Y-106364113D01*
X125918757Y-106357871D01*
X126041509Y-106355446D01*
X126166597Y-106356959D01*
G04 #@! TA.AperFunction,EtchedComponent*
G36*
X126166597Y-106356959D02*
G01*
X126220537Y-106359446D01*
X126287440Y-106362529D01*
X126397462Y-106372275D01*
X126401867Y-106372791D01*
X126499300Y-106386367D01*
X126604026Y-106404458D01*
X126708979Y-106425549D01*
X126807086Y-106448124D01*
X126891276Y-106470669D01*
X126954482Y-106491668D01*
X126993908Y-106507107D01*
X126943067Y-106551745D01*
X126918742Y-106575143D01*
X126864501Y-106651845D01*
X126835448Y-106740151D01*
X126831670Y-106839065D01*
X126853250Y-106947588D01*
X126900270Y-107064723D01*
X126961535Y-107168517D01*
X127055184Y-107278404D01*
X127172040Y-107373232D01*
X127284987Y-107438940D01*
X127409091Y-107484809D01*
X127539473Y-107505905D01*
X127546448Y-107506405D01*
X127594740Y-107511140D01*
X127628850Y-107516686D01*
X127641778Y-107521945D01*
X127641769Y-107522692D01*
X127636461Y-107553335D01*
X127623111Y-107602083D01*
X127604290Y-107661246D01*
X127582569Y-107723131D01*
X127560520Y-107780048D01*
X127540712Y-107824304D01*
X127460507Y-107963151D01*
X127363243Y-108090076D01*
X127255585Y-108192985D01*
X127138719Y-108270756D01*
X127013834Y-108322266D01*
X126946518Y-108336196D01*
X126857046Y-108344710D01*
X126759450Y-108346431D01*
X126663738Y-108341209D01*
X126579917Y-108328886D01*
X126498778Y-108311555D01*
X126498778Y-108219959D01*
X126498645Y-108209966D01*
X126482279Y-108108597D01*
X126440125Y-108011581D01*
X126374387Y-107921985D01*
X126287265Y-107842877D01*
X126180962Y-107777324D01*
X126147594Y-107760986D01*
X126104740Y-107743085D01*
X126065292Y-107733142D01*
X126018714Y-107728861D01*
X125954470Y-107727945D01*
X125916990Y-107728152D01*
X125865362Y-107730293D01*
X125829056Y-107736163D01*
X125799731Y-107747472D01*
X125769045Y-107765926D01*
X125753115Y-107777568D01*
X125716188Y-107812810D01*
X125692548Y-107847065D01*
X125690876Y-107850781D01*
X125676214Y-107878730D01*
X125666306Y-107890137D01*
X125665246Y-107889732D01*
X125648372Y-107877754D01*
X125615051Y-107851645D01*
X125569514Y-107814771D01*
X125515989Y-107770497D01*
X125506012Y-107762123D01*
X125363587Y-107631447D01*
X125245166Y-107500463D01*
X125151223Y-107370223D01*
X125089312Y-107254966D01*
X125259635Y-107254966D01*
X125278313Y-107311949D01*
X125301063Y-107345005D01*
X125326774Y-107367693D01*
X125351094Y-107376479D01*
X125395116Y-107381691D01*
X125437589Y-107377888D01*
X125465845Y-107365289D01*
X125480077Y-107342153D01*
X125483531Y-107298479D01*
X125467932Y-107249944D01*
X125434800Y-107204423D01*
X125415007Y-107186914D01*
X125366101Y-107161071D01*
X125321510Y-107158116D01*
X125285835Y-107174888D01*
X125263677Y-107208225D01*
X125259635Y-107254966D01*
X125089312Y-107254966D01*
X125082232Y-107241785D01*
X125038666Y-107116201D01*
X125021000Y-106994527D01*
X125029707Y-106877819D01*
X125053179Y-106804746D01*
X125919162Y-106804746D01*
X125935557Y-106858931D01*
X125975024Y-106909162D01*
X126039137Y-106952193D01*
X126102230Y-106975457D01*
X126188644Y-106987162D01*
X126276279Y-106980283D01*
X126358597Y-106956161D01*
X126429059Y-106916137D01*
X126481125Y-106861552D01*
X126506853Y-106805690D01*
X126510180Y-106746806D01*
X126489884Y-106692825D01*
X126448368Y-106646361D01*
X126388036Y-106610026D01*
X126311291Y-106586434D01*
X126220537Y-106578198D01*
X126217215Y-106578221D01*
X126128213Y-106588020D01*
X126052844Y-106613326D01*
X125992681Y-106650895D01*
X125949298Y-106697484D01*
X125924267Y-106749849D01*
X125919162Y-106804746D01*
X125053179Y-106804746D01*
X125065262Y-106767130D01*
X125071026Y-106754969D01*
X125136041Y-106654282D01*
X125225653Y-106566681D01*
X125321510Y-106504147D01*
X125339305Y-106492539D01*
X125476440Y-106432226D01*
X125636501Y-106386114D01*
X125706559Y-106374054D01*
X125804913Y-106364113D01*
X125918757Y-106357871D01*
X126041509Y-106355446D01*
X126166597Y-106356959D01*
G37*
G04 #@! TD.AperFunction*
G04 #@! TD*
D13*
G04 #@! TO.P,SW1,A,A*
G04 #@! TO.N,/ENCODER_A*
X135900000Y-103250000D03*
D14*
G04 #@! TO.P,SW1,B,B*
G04 #@! TO.N,/ENCODER_B*
X130900000Y-103250000D03*
G04 #@! TO.P,SW1,C,C*
G04 #@! TO.N,GND*
X133400000Y-103250000D03*
D15*
G04 #@! TO.P,SW1,MP,MP*
X127700000Y-110749999D03*
X139100000Y-110750000D03*
D14*
G04 #@! TO.P,SW1,S1,S1*
G04 #@! TO.N,unconnected-(SW1-PadS1)*
X135900000Y-117750000D03*
G04 #@! TO.P,SW1,S2,S2*
G04 #@! TO.N,unconnected-(SW1-PadS2)*
X130900000Y-117750000D03*
G04 #@! TD*
D16*
G04 #@! TO.P,J1,1,Pin_1*
G04 #@! TO.N,VCC*
X128675000Y-118400000D03*
G04 #@! TO.P,J1,2,Pin_2*
G04 #@! TO.N,/ENCODER_A_FILT*
X128675000Y-117200000D03*
G04 #@! TO.P,J1,3,Pin_3*
G04 #@! TO.N,/ENCODER_B_FILT*
X128675000Y-116000000D03*
G04 #@! TO.P,J1,4,Pin_4*
G04 #@! TO.N,GND*
X128675000Y-114800000D03*
D17*
G04 #@! TO.P,J1,MP,MountPin*
X125050000Y-119575000D03*
X125050000Y-113625000D03*
G04 #@! TD*
D18*
G04 #@! TO.P,C1,1*
G04 #@! TO.N,/ENCODER_A_FILT*
X135937499Y-113900000D03*
G04 #@! TO.P,C1,2*
G04 #@! TO.N,GND*
X137662501Y-113900000D03*
G04 #@! TD*
D19*
G04 #@! TO.P,R3,1*
G04 #@! TO.N,VCC*
X132012500Y-105900000D03*
G04 #@! TO.P,R3,2*
G04 #@! TO.N,/ENCODER_B*
X130187500Y-105900000D03*
G04 #@! TD*
D20*
G04 #@! TO.P,R2,1*
G04 #@! TO.N,/ENCODER_A_FILT*
X135900000Y-110612500D03*
G04 #@! TO.P,R2,2*
G04 #@! TO.N,/ENCODER_A*
X135900000Y-108787500D03*
G04 #@! TD*
D21*
G04 #@! TO.P,C2,1*
G04 #@! TO.N,/ENCODER_B_FILT*
X131500000Y-114462501D03*
G04 #@! TO.P,C2,2*
G04 #@! TO.N,GND*
X131500000Y-112737499D03*
G04 #@! TD*
D22*
G04 #@! TO.P,R1,1*
G04 #@! TO.N,VCC*
X134787500Y-105900000D03*
G04 #@! TO.P,R1,2*
G04 #@! TO.N,/ENCODER_A*
X136612500Y-105900000D03*
G04 #@! TD*
D20*
G04 #@! TO.P,R4,1*
G04 #@! TO.N,/ENCODER_B_FILT*
X130900000Y-110612500D03*
G04 #@! TO.P,R4,2*
G04 #@! TO.N,/ENCODER_B*
X130900000Y-108787500D03*
G04 #@! TD*
D23*
G04 #@! TO.N,VCC*
X131600000Y-119100000D02*
X133400000Y-117300000D01*
X133400000Y-117300000D02*
X133400000Y-105900000D01*
X128675000Y-118400000D02*
X129375000Y-119100000D01*
X133400000Y-105900000D02*
X134787500Y-105900000D01*
X132012500Y-105900000D02*
X133400000Y-105900000D01*
X129375000Y-119100000D02*
X131600000Y-119100000D01*
G04 #@! TO.N,/ENCODER_A_FILT*
X128300000Y-117200000D02*
X127700000Y-117800000D01*
X127700000Y-118900000D02*
X128600000Y-119800000D01*
X128675000Y-117200000D02*
X128300000Y-117200000D01*
X134400000Y-118400000D02*
X134400000Y-116800000D01*
X133000000Y-119800000D02*
X134400000Y-118400000D01*
X134400000Y-116800000D02*
X135937499Y-115262501D01*
X127700000Y-117800000D02*
X127700000Y-118900000D01*
X135900000Y-110612500D02*
X135900000Y-113862501D01*
X135937499Y-115262501D02*
X135937499Y-113900000D01*
X128600000Y-119800000D02*
X133000000Y-119800000D01*
X135900000Y-113862501D02*
X135937499Y-113900000D01*
G04 #@! TO.N,/ENCODER_B_FILT*
X129962501Y-116000000D02*
X128675000Y-116000000D01*
X132500000Y-113462501D02*
X132500000Y-111800000D01*
X131500000Y-114462501D02*
X129962501Y-116000000D01*
X131500000Y-114462501D02*
X132500000Y-113462501D01*
X132500000Y-111800000D02*
X131312500Y-110612500D01*
X131312500Y-110612500D02*
X130900000Y-110612500D01*
G04 #@! TO.N,/ENCODER_A*
X135900000Y-108787500D02*
X135900000Y-106612500D01*
X136612500Y-105900000D02*
X136612500Y-103962500D01*
X136612500Y-103962500D02*
X135900000Y-103250000D01*
X135900000Y-106612500D02*
X136612500Y-105900000D01*
G04 #@! TO.N,/ENCODER_B*
X130900000Y-108787500D02*
X130900000Y-106612500D01*
X130900000Y-106612500D02*
X130187500Y-105900000D01*
X130187500Y-103962500D02*
X130900000Y-103250000D01*
X130187500Y-105900000D02*
X130187500Y-103962500D01*
G04 #@! TD*
G04 #@! TA.AperFunction,Conductor*
G04 #@! TO.N,GND*
G36*
X134479024Y-103975471D02*
G01*
X134530135Y-103902480D01*
X134566328Y-103824862D01*
X134612500Y-103772422D01*
X134679693Y-103753269D01*
X134746574Y-103773484D01*
X134791910Y-103826648D01*
X134801826Y-103862480D01*
X134810121Y-103931558D01*
X134865639Y-104072343D01*
X134957077Y-104192922D01*
X135077656Y-104284360D01*
X135077657Y-104284360D01*
X135077658Y-104284361D01*
X135218436Y-104339877D01*
X135306898Y-104350500D01*
X135988000Y-104350500D01*
X136055039Y-104370185D01*
X136100794Y-104422989D01*
X136112000Y-104474500D01*
X136112000Y-105115674D01*
X136092315Y-105182713D01*
X136062925Y-105214478D01*
X135978499Y-105278499D01*
X135889139Y-105396339D01*
X135834882Y-105533924D01*
X135834882Y-105533925D01*
X135824500Y-105620381D01*
X135824500Y-105928824D01*
X135804815Y-105995863D01*
X135788181Y-106016505D01*
X135787181Y-106017505D01*
X135725858Y-106050990D01*
X135656166Y-106046006D01*
X135600233Y-106004134D01*
X135575816Y-105938670D01*
X135575500Y-105929824D01*
X135575500Y-105620381D01*
X135567483Y-105553628D01*
X135565117Y-105533923D01*
X135510862Y-105396342D01*
X135507530Y-105391948D01*
X135421500Y-105278499D01*
X135303660Y-105189139D01*
X135303658Y-105189138D01*
X135166077Y-105134883D01*
X135166076Y-105134882D01*
X135166074Y-105134882D01*
X135079619Y-105124500D01*
X135079618Y-105124500D01*
X134495382Y-105124500D01*
X134495381Y-105124500D01*
X134408925Y-105134882D01*
X134408924Y-105134882D01*
X134271339Y-105189139D01*
X134153499Y-105278499D01*
X134098958Y-105350425D01*
X134042766Y-105391948D01*
X134000154Y-105399500D01*
X132799846Y-105399500D01*
X132732807Y-105379815D01*
X132701042Y-105350425D01*
X132646500Y-105278499D01*
X132528660Y-105189139D01*
X132528658Y-105189138D01*
X132391077Y-105134883D01*
X132391076Y-105134882D01*
X132391074Y-105134882D01*
X132304619Y-105124500D01*
X132304618Y-105124500D01*
X131720382Y-105124500D01*
X131720381Y-105124500D01*
X131633925Y-105134882D01*
X131633924Y-105134882D01*
X131496339Y-105189139D01*
X131378499Y-105278499D01*
X131289139Y-105396339D01*
X131234882Y-105533924D01*
X131234882Y-105533925D01*
X131224500Y-105620381D01*
X131224500Y-105929824D01*
X131204815Y-105996863D01*
X131152011Y-106042618D01*
X131082853Y-106052562D01*
X131019297Y-106023537D01*
X131012819Y-106017505D01*
X131011819Y-106016505D01*
X130978334Y-105955182D01*
X130975500Y-105928824D01*
X130975500Y-105620381D01*
X130967483Y-105553628D01*
X130965117Y-105533923D01*
X130910862Y-105396342D01*
X130907530Y-105391948D01*
X130821500Y-105278499D01*
X130737075Y-105214478D01*
X130695551Y-105158285D01*
X130688000Y-105115674D01*
X130688000Y-104474500D01*
X130707685Y-104407461D01*
X130760489Y-104361706D01*
X130812000Y-104350500D01*
X131001974Y-104350500D01*
X131001976Y-104350500D01*
X131202456Y-104313024D01*
X131392637Y-104239348D01*
X131566041Y-104131981D01*
X131716764Y-103994579D01*
X131839673Y-103831821D01*
X131923149Y-103664178D01*
X131933138Y-103644118D01*
X131934763Y-103644927D01*
X131972258Y-103596102D01*
X132038017Y-103572491D01*
X132106103Y-103588180D01*
X132154898Y-103638188D01*
X132165118Y-103664178D01*
X132173729Y-103696314D01*
X132173735Y-103696331D01*
X132269863Y-103902478D01*
X132320974Y-103975472D01*
X132917037Y-103379409D01*
X132934075Y-103442993D01*
X132999901Y-103557007D01*
X133092993Y-103650099D01*
X133207007Y-103715925D01*
X133270590Y-103732962D01*
X132674526Y-104329025D01*
X132747513Y-104380132D01*
X132747521Y-104380136D01*
X132953668Y-104476264D01*
X132953682Y-104476269D01*
X133173389Y-104535139D01*
X133173400Y-104535141D01*
X133399998Y-104554966D01*
X133400002Y-104554966D01*
X133626599Y-104535141D01*
X133626610Y-104535139D01*
X133846317Y-104476269D01*
X133846331Y-104476264D01*
X134052478Y-104380136D01*
X134125471Y-104329024D01*
X133529409Y-103732962D01*
X133592993Y-103715925D01*
X133707007Y-103650099D01*
X133800099Y-103557007D01*
X133865925Y-103442993D01*
X133882962Y-103379409D01*
X134479024Y-103975471D01*
G37*
G04 #@! TD.AperFunction*
G04 #@! TA.AperFunction,Conductor*
G36*
X141304043Y-101000765D02*
G01*
X141526790Y-101015364D01*
X141542848Y-101017479D01*
X141728875Y-101054482D01*
X141757771Y-101060230D01*
X141773438Y-101064428D01*
X141926569Y-101116409D01*
X141980944Y-101134867D01*
X141995921Y-101141070D01*
X142186791Y-101235196D01*
X142192460Y-101237992D01*
X142206508Y-101246102D01*
X142388712Y-101367848D01*
X142401573Y-101377716D01*
X142506495Y-101469730D01*
X142566328Y-101522202D01*
X142577797Y-101533671D01*
X142590738Y-101548427D01*
X142688160Y-101659517D01*
X142722280Y-101698423D01*
X142732154Y-101711291D01*
X142853897Y-101893492D01*
X142862007Y-101907539D01*
X142958926Y-102104071D01*
X142965133Y-102119057D01*
X143035571Y-102326561D01*
X143039769Y-102342228D01*
X143082518Y-102557140D01*
X143084636Y-102573221D01*
X143099235Y-102795956D01*
X143099500Y-102804066D01*
X143099500Y-118795933D01*
X143099235Y-118804043D01*
X143084636Y-119026778D01*
X143082518Y-119042859D01*
X143039769Y-119257771D01*
X143035571Y-119273438D01*
X142965133Y-119480942D01*
X142958926Y-119495928D01*
X142862007Y-119692460D01*
X142853897Y-119706507D01*
X142732154Y-119888708D01*
X142722280Y-119901576D01*
X142577797Y-120066328D01*
X142566328Y-120077797D01*
X142401576Y-120222280D01*
X142388708Y-120232154D01*
X142206507Y-120353897D01*
X142192460Y-120362007D01*
X141995928Y-120458926D01*
X141980942Y-120465133D01*
X141773438Y-120535571D01*
X141757771Y-120539769D01*
X141542859Y-120582518D01*
X141526778Y-120584636D01*
X141304043Y-120599235D01*
X141295933Y-120599500D01*
X125504067Y-120599500D01*
X125495957Y-120599235D01*
X125273221Y-120584636D01*
X125257140Y-120582518D01*
X125042228Y-120539769D01*
X125026561Y-120535571D01*
X124819057Y-120465133D01*
X124804071Y-120458926D01*
X124607539Y-120362007D01*
X124593492Y-120353897D01*
X124411291Y-120232154D01*
X124398423Y-120222280D01*
X124373586Y-120200499D01*
X124262390Y-120102983D01*
X124233671Y-120077797D01*
X124222202Y-120066328D01*
X124169730Y-120006495D01*
X124077716Y-119901573D01*
X124067845Y-119888708D01*
X123946102Y-119706507D01*
X123937992Y-119692460D01*
X123935196Y-119686791D01*
X123841070Y-119495921D01*
X123834866Y-119480942D01*
X123764428Y-119273438D01*
X123760230Y-119257771D01*
X123727492Y-119093186D01*
X123717479Y-119042848D01*
X123715364Y-119026790D01*
X123700765Y-118804043D01*
X123700500Y-118795933D01*
X123700500Y-117734108D01*
X127199500Y-117734108D01*
X127199500Y-118965891D01*
X127233608Y-119093187D01*
X127234249Y-119094297D01*
X127299500Y-119207314D01*
X127299501Y-119207315D01*
X127299502Y-119207316D01*
X128195159Y-120102972D01*
X128195169Y-120102983D01*
X128199499Y-120107313D01*
X128199500Y-120107314D01*
X128292686Y-120200500D01*
X128406814Y-120266392D01*
X128534107Y-120300500D01*
X128534108Y-120300500D01*
X128534109Y-120300500D01*
X133065890Y-120300500D01*
X133065892Y-120300500D01*
X133193186Y-120266392D01*
X133307314Y-120200500D01*
X134800500Y-118707314D01*
X134866392Y-118593186D01*
X134877460Y-118551877D01*
X134913822Y-118492219D01*
X134976668Y-118461688D01*
X135046044Y-118469982D01*
X135080772Y-118492334D01*
X135233957Y-118631980D01*
X135233960Y-118631982D01*
X135333141Y-118693392D01*
X135407363Y-118739348D01*
X135597544Y-118813024D01*
X135798024Y-118850500D01*
X135798026Y-118850500D01*
X136001974Y-118850500D01*
X136001976Y-118850500D01*
X136202456Y-118813024D01*
X136392637Y-118739348D01*
X136566041Y-118631981D01*
X136716764Y-118494579D01*
X136839673Y-118331821D01*
X136930582Y-118149250D01*
X136986397Y-117953083D01*
X137005215Y-117750000D01*
X137003742Y-117734108D01*
X136986397Y-117546917D01*
X136956244Y-117440941D01*
X136930582Y-117350750D01*
X136839673Y-117168179D01*
X136741591Y-117038297D01*
X136716762Y-117005418D01*
X136566041Y-116868019D01*
X136566039Y-116868017D01*
X136392642Y-116760655D01*
X136392635Y-116760651D01*
X136235481Y-116699770D01*
X136202456Y-116686976D01*
X136001976Y-116649500D01*
X135798024Y-116649500D01*
X135646739Y-116677779D01*
X135597538Y-116686977D01*
X135530740Y-116712855D01*
X135461117Y-116718716D01*
X135399377Y-116686006D01*
X135365122Y-116625110D01*
X135369229Y-116555361D01*
X135398264Y-116509549D01*
X136337999Y-115569815D01*
X136403891Y-115455687D01*
X136437999Y-115328393D01*
X136437999Y-115196609D01*
X136437999Y-114720315D01*
X136457684Y-114653276D01*
X136497040Y-114616175D01*
X136496898Y-114615988D01*
X136498643Y-114614664D01*
X136501228Y-114612228D01*
X136503651Y-114610864D01*
X136503657Y-114610862D01*
X136588574Y-114546467D01*
X136653885Y-114521644D01*
X136722249Y-114536072D01*
X136769038Y-114580175D01*
X136780055Y-114598037D01*
X136901962Y-114719944D01*
X136901966Y-114719947D01*
X137048689Y-114810448D01*
X137048700Y-114810453D01*
X137212348Y-114864680D01*
X137313352Y-114874999D01*
X137912501Y-114874999D01*
X138011641Y-114874999D01*
X138011655Y-114874998D01*
X138112653Y-114864680D01*
X138276301Y-114810453D01*
X138276312Y-114810448D01*
X138423035Y-114719947D01*
X138423039Y-114719944D01*
X138544945Y-114598038D01*
X138544948Y-114598034D01*
X138635449Y-114451311D01*
X138635454Y-114451300D01*
X138689681Y-114287652D01*
X138700000Y-114186654D01*
X138700001Y-114186641D01*
X138700001Y-114150000D01*
X137912501Y-114150000D01*
X137912501Y-114874999D01*
X137313352Y-114874999D01*
X137412501Y-114874998D01*
X137412501Y-113650000D01*
X137912501Y-113650000D01*
X138700000Y-113650000D01*
X138700000Y-113613360D01*
X138699999Y-113613345D01*
X138689681Y-113512347D01*
X138635454Y-113348699D01*
X138635449Y-113348688D01*
X138544948Y-113201965D01*
X138544945Y-113201961D01*
X138423039Y-113080055D01*
X138423035Y-113080052D01*
X138276312Y-112989551D01*
X138276301Y-112989546D01*
X138112653Y-112935319D01*
X138011655Y-112925000D01*
X137912501Y-112925000D01*
X137912501Y-113650000D01*
X137412501Y-113650000D01*
X137412501Y-112924999D01*
X137313361Y-112925000D01*
X137313345Y-112925001D01*
X137212348Y-112935319D01*
X137048700Y-112989546D01*
X137048689Y-112989551D01*
X136901966Y-113080052D01*
X136901962Y-113080055D01*
X136780055Y-113201962D01*
X136769037Y-113219826D01*
X136717088Y-113266550D01*
X136648125Y-113277771D01*
X136588574Y-113253532D01*
X136503659Y-113189139D01*
X136503653Y-113189136D01*
X136479010Y-113179418D01*
X136423866Y-113136513D01*
X136400673Y-113070605D01*
X136400500Y-113064064D01*
X136400500Y-111399846D01*
X136420185Y-111332807D01*
X136449575Y-111301042D01*
X136504538Y-111259363D01*
X136521500Y-111246500D01*
X136610862Y-111128658D01*
X136665117Y-110991077D01*
X136675500Y-110904618D01*
X136675500Y-110320382D01*
X136671680Y-110288575D01*
X137400000Y-110288575D01*
X137400000Y-110500000D01*
X138400000Y-110500000D01*
X138400000Y-111000000D01*
X137400000Y-111000000D01*
X137400000Y-111211424D01*
X137429085Y-111432354D01*
X137429088Y-111432367D01*
X137486763Y-111647618D01*
X137572045Y-111853502D01*
X137572054Y-111853520D01*
X137683464Y-112046491D01*
X137683466Y-112046495D01*
X137819130Y-112223293D01*
X137819138Y-112223302D01*
X137976698Y-112380862D01*
X137976706Y-112380869D01*
X138153504Y-112516533D01*
X138153508Y-112516535D01*
X138346479Y-112627945D01*
X138346497Y-112627954D01*
X138552379Y-112713235D01*
X138767632Y-112770912D01*
X138849999Y-112781755D01*
X138850000Y-112781755D01*
X138850000Y-111754120D01*
X138895818Y-111773099D01*
X139031056Y-111800000D01*
X139168944Y-111800000D01*
X139304182Y-111773099D01*
X139350000Y-111754120D01*
X139350000Y-112781755D01*
X139432367Y-112770912D01*
X139647620Y-112713235D01*
X139853502Y-112627954D01*
X139853520Y-112627945D01*
X140046491Y-112516535D01*
X140046495Y-112516533D01*
X140223293Y-112380869D01*
X140223302Y-112380862D01*
X140380862Y-112223302D01*
X140380869Y-112223293D01*
X140516533Y-112046495D01*
X140516535Y-112046491D01*
X140627945Y-111853520D01*
X140627954Y-111853502D01*
X140713236Y-111647618D01*
X140770911Y-111432367D01*
X140770914Y-111432354D01*
X140800000Y-111211424D01*
X140800000Y-111000000D01*
X139800000Y-111000000D01*
X139800000Y-110500000D01*
X140800000Y-110500000D01*
X140800000Y-110288575D01*
X140770914Y-110067645D01*
X140770911Y-110067632D01*
X140713236Y-109852381D01*
X140627954Y-109646497D01*
X140627945Y-109646479D01*
X140516535Y-109453508D01*
X140516533Y-109453504D01*
X140380869Y-109276706D01*
X140380862Y-109276698D01*
X140223302Y-109119138D01*
X140223293Y-109119130D01*
X140046495Y-108983466D01*
X140046491Y-108983464D01*
X139853520Y-108872054D01*
X139853502Y-108872045D01*
X139647618Y-108786763D01*
X139432363Y-108729087D01*
X139350000Y-108718242D01*
X139350000Y-109745879D01*
X139304182Y-109726901D01*
X139168944Y-109700000D01*
X139031056Y-109700000D01*
X138895818Y-109726901D01*
X138850000Y-109745879D01*
X138850000Y-108718242D01*
X138849999Y-108718242D01*
X138767636Y-108729087D01*
X138552381Y-108786763D01*
X138346497Y-108872045D01*
X138346479Y-108872054D01*
X138153508Y-108983464D01*
X138153504Y-108983466D01*
X137976706Y-109119130D01*
X137819130Y-109276706D01*
X137683466Y-109453504D01*
X137683464Y-109453508D01*
X137572054Y-109646479D01*
X137572045Y-109646497D01*
X137486763Y-109852381D01*
X137429088Y-110067632D01*
X137429085Y-110067645D01*
X137400000Y-110288575D01*
X136671680Y-110288575D01*
X136665117Y-110233923D01*
X136610862Y-110096342D01*
X136610860Y-110096339D01*
X136521500Y-109978499D01*
X136403660Y-109889139D01*
X136403658Y-109889138D01*
X136266077Y-109834883D01*
X136266076Y-109834882D01*
X136266074Y-109834882D01*
X136179619Y-109824500D01*
X136179618Y-109824500D01*
X135620382Y-109824500D01*
X135620381Y-109824500D01*
X135533925Y-109834882D01*
X135533924Y-109834882D01*
X135396339Y-109889139D01*
X135278499Y-109978499D01*
X135189139Y-110096339D01*
X135134882Y-110233924D01*
X135134882Y-110233925D01*
X135124500Y-110320381D01*
X135124500Y-110904618D01*
X135134882Y-110991074D01*
X135134882Y-110991075D01*
X135189139Y-111128660D01*
X135278499Y-111246500D01*
X135350425Y-111301042D01*
X135391948Y-111357234D01*
X135399500Y-111399846D01*
X135399500Y-113106194D01*
X135379815Y-113173233D01*
X135350425Y-113204998D01*
X135253498Y-113278499D01*
X135164138Y-113396339D01*
X135109881Y-113533924D01*
X135109881Y-113533925D01*
X135099499Y-113620381D01*
X135099499Y-114179618D01*
X135109881Y-114266074D01*
X135109881Y-114266075D01*
X135109882Y-114266077D01*
X135158672Y-114389801D01*
X135164138Y-114403660D01*
X135253498Y-114521500D01*
X135371341Y-114610862D01*
X135373770Y-114612228D01*
X135375555Y-114614057D01*
X135378099Y-114615987D01*
X135377809Y-114616368D01*
X135422559Y-114662241D01*
X135436999Y-114720315D01*
X135436999Y-115003825D01*
X135417314Y-115070864D01*
X135400680Y-115091506D01*
X134112181Y-116380005D01*
X134050858Y-116413490D01*
X133981166Y-116408506D01*
X133925233Y-116366634D01*
X133900816Y-116301170D01*
X133900500Y-116292324D01*
X133900500Y-106556605D01*
X133920185Y-106489566D01*
X133972989Y-106443811D01*
X134042147Y-106433867D01*
X134105703Y-106462892D01*
X134123302Y-106481677D01*
X134153500Y-106521500D01*
X134271342Y-106610862D01*
X134408923Y-106665117D01*
X134466562Y-106672039D01*
X134495381Y-106675500D01*
X134495382Y-106675500D01*
X135079619Y-106675500D01*
X135101232Y-106672904D01*
X135166077Y-106665117D01*
X135230010Y-106639904D01*
X135299596Y-106633623D01*
X135361532Y-106665959D01*
X135396154Y-106726648D01*
X135399500Y-106755259D01*
X135399500Y-108000153D01*
X135379815Y-108067192D01*
X135350425Y-108098957D01*
X135278499Y-108153499D01*
X135189139Y-108271339D01*
X135134882Y-108408924D01*
X135134882Y-108408925D01*
X135124500Y-108495381D01*
X135124500Y-109079618D01*
X135134882Y-109166074D01*
X135134882Y-109166075D01*
X135134883Y-109166077D01*
X135178509Y-109276706D01*
X135189139Y-109303660D01*
X135278499Y-109421500D01*
X135396339Y-109510860D01*
X135396342Y-109510862D01*
X135533923Y-109565117D01*
X135591562Y-109572039D01*
X135620381Y-109575500D01*
X135620382Y-109575500D01*
X136179619Y-109575500D01*
X136201232Y-109572904D01*
X136266077Y-109565117D01*
X136403658Y-109510862D01*
X136521500Y-109421500D01*
X136610862Y-109303658D01*
X136665117Y-109166077D01*
X136675500Y-109079618D01*
X136675500Y-108495382D01*
X136665117Y-108408923D01*
X136610862Y-108271342D01*
X136610860Y-108271339D01*
X136521500Y-108153499D01*
X136449575Y-108098957D01*
X136408051Y-108042764D01*
X136400500Y-108000153D01*
X136400500Y-106871176D01*
X136420185Y-106804137D01*
X136436819Y-106783495D01*
X136508495Y-106711819D01*
X136569818Y-106678334D01*
X136596176Y-106675500D01*
X136904619Y-106675500D01*
X136926232Y-106672904D01*
X136991077Y-106665117D01*
X137128658Y-106610862D01*
X137246500Y-106521500D01*
X137335862Y-106403658D01*
X137390117Y-106266077D01*
X137400500Y-106179618D01*
X137400500Y-105620382D01*
X137398751Y-105605822D01*
X137392483Y-105553628D01*
X137390117Y-105533923D01*
X137335862Y-105396342D01*
X137332530Y-105391948D01*
X137246500Y-105278499D01*
X137162075Y-105214478D01*
X137120551Y-105158285D01*
X137113000Y-105115674D01*
X137113000Y-103896610D01*
X137113000Y-103896608D01*
X137078892Y-103769314D01*
X137078890Y-103769310D01*
X137017113Y-103662309D01*
X137000500Y-103600309D01*
X137000500Y-102656903D01*
X137000500Y-102656898D01*
X136989877Y-102568436D01*
X136934361Y-102427658D01*
X136934360Y-102427657D01*
X136934360Y-102427656D01*
X136842922Y-102307077D01*
X136722343Y-102215639D01*
X136609080Y-102170974D01*
X136581564Y-102160123D01*
X136581563Y-102160122D01*
X136581561Y-102160122D01*
X136535926Y-102154642D01*
X136493102Y-102149500D01*
X135306898Y-102149500D01*
X135267853Y-102154188D01*
X135218438Y-102160122D01*
X135077656Y-102215639D01*
X134957077Y-102307077D01*
X134865639Y-102427656D01*
X134810121Y-102568441D01*
X134801826Y-102637519D01*
X134774289Y-102701733D01*
X134716406Y-102740866D01*
X134646555Y-102742492D01*
X134586914Y-102706096D01*
X134566328Y-102675138D01*
X134530131Y-102597512D01*
X134479025Y-102524526D01*
X133882962Y-103120589D01*
X133865925Y-103057007D01*
X133800099Y-102942993D01*
X133707007Y-102849901D01*
X133592993Y-102784075D01*
X133529410Y-102767037D01*
X134125472Y-102170974D01*
X134052478Y-102119863D01*
X133846331Y-102023735D01*
X133846317Y-102023730D01*
X133626610Y-101964860D01*
X133626599Y-101964858D01*
X133400002Y-101945034D01*
X133399998Y-101945034D01*
X133173400Y-101964858D01*
X133173389Y-101964860D01*
X132953682Y-102023730D01*
X132953673Y-102023734D01*
X132747516Y-102119866D01*
X132747512Y-102119868D01*
X132674526Y-102170973D01*
X132674526Y-102170974D01*
X133270590Y-102767037D01*
X133207007Y-102784075D01*
X133092993Y-102849901D01*
X132999901Y-102942993D01*
X132934075Y-103057007D01*
X132917037Y-103120589D01*
X132320974Y-102524526D01*
X132320973Y-102524526D01*
X132269868Y-102597512D01*
X132269866Y-102597516D01*
X132173734Y-102803673D01*
X132173729Y-102803686D01*
X132165118Y-102835821D01*
X132128752Y-102895481D01*
X132065904Y-102926009D01*
X131996529Y-102917712D01*
X131942652Y-102873226D01*
X131933484Y-102855709D01*
X131933138Y-102855882D01*
X131858553Y-102706096D01*
X131839673Y-102668179D01*
X131767964Y-102573221D01*
X131716762Y-102505418D01*
X131566041Y-102368019D01*
X131566039Y-102368017D01*
X131392642Y-102260655D01*
X131392635Y-102260651D01*
X131276444Y-102215639D01*
X131202456Y-102186976D01*
X131001976Y-102149500D01*
X130798024Y-102149500D01*
X130597544Y-102186976D01*
X130597541Y-102186976D01*
X130597541Y-102186977D01*
X130407364Y-102260651D01*
X130407357Y-102260655D01*
X130233960Y-102368017D01*
X130233958Y-102368019D01*
X130083237Y-102505418D01*
X129960327Y-102668178D01*
X129869422Y-102850739D01*
X129869417Y-102850752D01*
X129813602Y-103046917D01*
X129794785Y-103249999D01*
X129794785Y-103250000D01*
X129813602Y-103453079D01*
X129813602Y-103453082D01*
X129813603Y-103453083D01*
X129832534Y-103519622D01*
X129831947Y-103589487D01*
X129800951Y-103641233D01*
X129787000Y-103655183D01*
X129721109Y-103769310D01*
X129721109Y-103769311D01*
X129721108Y-103769313D01*
X129721108Y-103769314D01*
X129687000Y-103896608D01*
X129687000Y-105115674D01*
X129667315Y-105182713D01*
X129637925Y-105214478D01*
X129553499Y-105278499D01*
X129464139Y-105396339D01*
X129409882Y-105533924D01*
X129409882Y-105533925D01*
X129399500Y-105620381D01*
X129399500Y-106179618D01*
X129409882Y-106266074D01*
X129409882Y-106266075D01*
X129464139Y-106403660D01*
X129553499Y-106521500D01*
X129671339Y-106610860D01*
X129671342Y-106610862D01*
X129808923Y-106665117D01*
X129866562Y-106672039D01*
X129895381Y-106675500D01*
X129895382Y-106675500D01*
X130203824Y-106675500D01*
X130270863Y-106695185D01*
X130291505Y-106711819D01*
X130363181Y-106783495D01*
X130396666Y-106844818D01*
X130399500Y-106871176D01*
X130399500Y-108000153D01*
X130379815Y-108067192D01*
X130350425Y-108098957D01*
X130278499Y-108153499D01*
X130189139Y-108271339D01*
X130134882Y-108408924D01*
X130134882Y-108408925D01*
X130124500Y-108495381D01*
X130124500Y-109079618D01*
X130134882Y-109166074D01*
X130134882Y-109166075D01*
X130134883Y-109166077D01*
X130178509Y-109276706D01*
X130189139Y-109303660D01*
X130278499Y-109421500D01*
X130396339Y-109510860D01*
X130396342Y-109510862D01*
X130533923Y-109565117D01*
X130591562Y-109572039D01*
X130620381Y-109575500D01*
X130620382Y-109575500D01*
X131179619Y-109575500D01*
X131201232Y-109572904D01*
X131266077Y-109565117D01*
X131403658Y-109510862D01*
X131521500Y-109421500D01*
X131610862Y-109303658D01*
X131665117Y-109166077D01*
X131675500Y-109079618D01*
X131675500Y-108495382D01*
X131665117Y-108408923D01*
X131610862Y-108271342D01*
X131610860Y-108271339D01*
X131521500Y-108153499D01*
X131449575Y-108098957D01*
X131408051Y-108042764D01*
X131400500Y-108000153D01*
X131400500Y-106755259D01*
X131420185Y-106688220D01*
X131472989Y-106642465D01*
X131542147Y-106632521D01*
X131569987Y-106639904D01*
X131633923Y-106665117D01*
X131691562Y-106672039D01*
X131720381Y-106675500D01*
X131720382Y-106675500D01*
X132304619Y-106675500D01*
X132326232Y-106672904D01*
X132391077Y-106665117D01*
X132528658Y-106610862D01*
X132646500Y-106521500D01*
X132676696Y-106481680D01*
X132732887Y-106440157D01*
X132802608Y-106435604D01*
X132863723Y-106469469D01*
X132896827Y-106530998D01*
X132899500Y-106556605D01*
X132899500Y-111192324D01*
X132879815Y-111259363D01*
X132827011Y-111305118D01*
X132757853Y-111315062D01*
X132694297Y-111286037D01*
X132687819Y-111280005D01*
X131697189Y-110289375D01*
X131669557Y-110240718D01*
X131668033Y-110241320D01*
X131665117Y-110233925D01*
X131665117Y-110233923D01*
X131610862Y-110096342D01*
X131610860Y-110096339D01*
X131521500Y-109978499D01*
X131403660Y-109889139D01*
X131403658Y-109889138D01*
X131266077Y-109834883D01*
X131266076Y-109834882D01*
X131266074Y-109834882D01*
X131179619Y-109824500D01*
X131179618Y-109824500D01*
X130620382Y-109824500D01*
X130620381Y-109824500D01*
X130533925Y-109834882D01*
X130533924Y-109834882D01*
X130396339Y-109889139D01*
X130278499Y-109978499D01*
X130189139Y-110096339D01*
X130134882Y-110233924D01*
X130134882Y-110233925D01*
X130124500Y-110320381D01*
X130124500Y-110904618D01*
X130134882Y-110991074D01*
X130134882Y-110991075D01*
X130189139Y-111128660D01*
X130278499Y-111246500D01*
X130392313Y-111332807D01*
X130396342Y-111335862D01*
X130533923Y-111390117D01*
X130591562Y-111397039D01*
X130620381Y-111400500D01*
X130620382Y-111400500D01*
X131179619Y-111400500D01*
X131222847Y-111395308D01*
X131266077Y-111390117D01*
X131273768Y-111387083D01*
X131343353Y-111380800D01*
X131405291Y-111413135D01*
X131406942Y-111414756D01*
X131480504Y-111488318D01*
X131513989Y-111549641D01*
X131509005Y-111619333D01*
X131467133Y-111675266D01*
X131401669Y-111699683D01*
X131392824Y-111699999D01*
X131213361Y-111699999D01*
X131213344Y-111700000D01*
X131112347Y-111710318D01*
X130948699Y-111764545D01*
X130948688Y-111764550D01*
X130801965Y-111855051D01*
X130801961Y-111855054D01*
X130680055Y-111976960D01*
X130680052Y-111976964D01*
X130589551Y-112123687D01*
X130589546Y-112123698D01*
X130535319Y-112287346D01*
X130525000Y-112388344D01*
X130525000Y-112487499D01*
X131626000Y-112487499D01*
X131693039Y-112507184D01*
X131738794Y-112559988D01*
X131750000Y-112611499D01*
X131750000Y-112863499D01*
X131730315Y-112930538D01*
X131677511Y-112976293D01*
X131626000Y-112987499D01*
X130525001Y-112987499D01*
X130525001Y-113086653D01*
X130535319Y-113187651D01*
X130589546Y-113351299D01*
X130589551Y-113351310D01*
X130680052Y-113498033D01*
X130680055Y-113498037D01*
X130801960Y-113619942D01*
X130819823Y-113630960D01*
X130866549Y-113682908D01*
X130877772Y-113751870D01*
X130853532Y-113811425D01*
X130789139Y-113896340D01*
X130734882Y-114033925D01*
X130734882Y-114033926D01*
X130724500Y-114120382D01*
X130724500Y-114478825D01*
X130704815Y-114545864D01*
X130688181Y-114566506D01*
X129791506Y-115463181D01*
X129730183Y-115496666D01*
X129703825Y-115499500D01*
X129597584Y-115499500D01*
X129530545Y-115479815D01*
X129484790Y-115427011D01*
X129474846Y-115357853D01*
X129490852Y-115312379D01*
X129551281Y-115210198D01*
X129597100Y-115052486D01*
X129597295Y-115050001D01*
X129597295Y-115050000D01*
X127752705Y-115050000D01*
X127752704Y-115050001D01*
X127752899Y-115052486D01*
X127798718Y-115210198D01*
X127882314Y-115351552D01*
X127882321Y-115351561D01*
X127994224Y-115463464D01*
X128027709Y-115524787D01*
X128022725Y-115594479D01*
X128006315Y-115624776D01*
X127997209Y-115637114D01*
X127997206Y-115637119D01*
X127952353Y-115765298D01*
X127952353Y-115765300D01*
X127949500Y-115795730D01*
X127949500Y-116204269D01*
X127952353Y-116234699D01*
X127952353Y-116234701D01*
X127997206Y-116362880D01*
X127997207Y-116362882D01*
X128077850Y-116472150D01*
X128109710Y-116495663D01*
X128115897Y-116500230D01*
X128158148Y-116555878D01*
X128163605Y-116625534D01*
X128130538Y-116687084D01*
X128115897Y-116699770D01*
X128077849Y-116727850D01*
X128064300Y-116746208D01*
X128026536Y-116779955D01*
X127992684Y-116799500D01*
X127392686Y-117399500D01*
X127299502Y-117492683D01*
X127299500Y-117492686D01*
X127233608Y-117606812D01*
X127199500Y-117734108D01*
X123700500Y-117734108D01*
X123700500Y-114549998D01*
X127752704Y-114549998D01*
X127752705Y-114550000D01*
X128425000Y-114550000D01*
X128925000Y-114550000D01*
X129597295Y-114550000D01*
X129597295Y-114549998D01*
X129597100Y-114547513D01*
X129551281Y-114389801D01*
X129467685Y-114248447D01*
X129467678Y-114248438D01*
X129351561Y-114132321D01*
X129351552Y-114132314D01*
X129210196Y-114048717D01*
X129210193Y-114048716D01*
X129052495Y-114002900D01*
X129052489Y-114002899D01*
X129015649Y-114000000D01*
X128925000Y-114000000D01*
X128925000Y-114550000D01*
X128425000Y-114550000D01*
X128425000Y-114000000D01*
X128334350Y-114000000D01*
X128297510Y-114002899D01*
X128297504Y-114002900D01*
X128139806Y-114048716D01*
X128139803Y-114048717D01*
X127998447Y-114132314D01*
X127998438Y-114132321D01*
X127882321Y-114248438D01*
X127882314Y-114248447D01*
X127798718Y-114389801D01*
X127752899Y-114547513D01*
X127752704Y-114549998D01*
X123700500Y-114549998D01*
X123700500Y-113875000D01*
X124000630Y-113875000D01*
X124006295Y-113937337D01*
X124055963Y-114096728D01*
X124055965Y-114096732D01*
X124142332Y-114239602D01*
X124142336Y-114239607D01*
X124260392Y-114357663D01*
X124260397Y-114357667D01*
X124403267Y-114444034D01*
X124403271Y-114444036D01*
X124562664Y-114493704D01*
X124562662Y-114493704D01*
X124631941Y-114500000D01*
X124800000Y-114500000D01*
X125300000Y-114500000D01*
X125468059Y-114500000D01*
X125537336Y-114493704D01*
X125696728Y-114444036D01*
X125696732Y-114444034D01*
X125839602Y-114357667D01*
X125839607Y-114357663D01*
X125957663Y-114239607D01*
X125957667Y-114239602D01*
X126044034Y-114096732D01*
X126044036Y-114096728D01*
X126093704Y-113937337D01*
X126099370Y-113875000D01*
X125300000Y-113875000D01*
X125300000Y-114500000D01*
X124800000Y-114500000D01*
X124800000Y-113875000D01*
X124000630Y-113875000D01*
X123700500Y-113875000D01*
X123700500Y-113374999D01*
X124000629Y-113374999D01*
X124000630Y-113375000D01*
X124800000Y-113375000D01*
X125300000Y-113375000D01*
X126099370Y-113375000D01*
X126099370Y-113374999D01*
X126093704Y-113312662D01*
X126044036Y-113153271D01*
X126044034Y-113153267D01*
X125957667Y-113010397D01*
X125957663Y-113010392D01*
X125839607Y-112892336D01*
X125839602Y-112892332D01*
X125696732Y-112805965D01*
X125696728Y-112805963D01*
X125537335Y-112756295D01*
X125537337Y-112756295D01*
X125468059Y-112750000D01*
X125300000Y-112750000D01*
X125300000Y-113375000D01*
X124800000Y-113375000D01*
X124800000Y-112750000D01*
X124631941Y-112750000D01*
X124562663Y-112756295D01*
X124403271Y-112805963D01*
X124403267Y-112805965D01*
X124260397Y-112892332D01*
X124260392Y-112892336D01*
X124142336Y-113010392D01*
X124142332Y-113010397D01*
X124055965Y-113153267D01*
X124055963Y-113153271D01*
X124006295Y-113312662D01*
X124000629Y-113374999D01*
X123700500Y-113374999D01*
X123700500Y-110211953D01*
X123720185Y-110144914D01*
X123772989Y-110099159D01*
X123824500Y-110087953D01*
X125885017Y-110087953D01*
X125952056Y-110107638D01*
X125997811Y-110160442D01*
X126007956Y-110228137D01*
X126000000Y-110288572D01*
X126000000Y-110499999D01*
X127000000Y-110499999D01*
X127000000Y-110999999D01*
X126000000Y-110999999D01*
X126000000Y-111211423D01*
X126029085Y-111432353D01*
X126029088Y-111432366D01*
X126086763Y-111647617D01*
X126172045Y-111853501D01*
X126172054Y-111853519D01*
X126283464Y-112046490D01*
X126283466Y-112046494D01*
X126419130Y-112223292D01*
X126419138Y-112223301D01*
X126576698Y-112380861D01*
X126576706Y-112380868D01*
X126753504Y-112516532D01*
X126753508Y-112516534D01*
X126946479Y-112627944D01*
X126946497Y-112627953D01*
X127152379Y-112713234D01*
X127367632Y-112770911D01*
X127449999Y-112781754D01*
X127450000Y-112781754D01*
X127450000Y-111754119D01*
X127495818Y-111773098D01*
X127631056Y-111799999D01*
X127768944Y-111799999D01*
X127904182Y-111773098D01*
X127950000Y-111754119D01*
X127950000Y-112781754D01*
X128032367Y-112770911D01*
X128247620Y-112713234D01*
X128453502Y-112627953D01*
X128453520Y-112627944D01*
X128646491Y-112516534D01*
X128646495Y-112516532D01*
X128823293Y-112380868D01*
X128823302Y-112380861D01*
X128980862Y-112223301D01*
X128980869Y-112223292D01*
X129116533Y-112046494D01*
X129116535Y-112046490D01*
X129227945Y-111853519D01*
X129227954Y-111853501D01*
X129313236Y-111647617D01*
X129370911Y-111432366D01*
X129370914Y-111432353D01*
X129400000Y-111211423D01*
X129400000Y-110999999D01*
X128400000Y-110999999D01*
X128400000Y-110499999D01*
X129400000Y-110499999D01*
X129400000Y-110288574D01*
X129370914Y-110067644D01*
X129370911Y-110067631D01*
X129313236Y-109852380D01*
X129227954Y-109646496D01*
X129227945Y-109646478D01*
X129116535Y-109453507D01*
X129116533Y-109453503D01*
X128980869Y-109276705D01*
X128980862Y-109276697D01*
X128823302Y-109119137D01*
X128823293Y-109119129D01*
X128646495Y-108983465D01*
X128646491Y-108983463D01*
X128453520Y-108872053D01*
X128453502Y-108872044D01*
X128247618Y-108786762D01*
X128032363Y-108729086D01*
X127950000Y-108718241D01*
X127950000Y-109745878D01*
X127904182Y-109726900D01*
X127768944Y-109699999D01*
X127631056Y-109699999D01*
X127495818Y-109726900D01*
X127450000Y-109745878D01*
X127450000Y-108718241D01*
X127424786Y-108696130D01*
X127387362Y-108637129D01*
X127387778Y-108567260D01*
X127425901Y-108508708D01*
X127441337Y-108497432D01*
X127444653Y-108495382D01*
X127480046Y-108473500D01*
X127492726Y-108465227D01*
X127550632Y-108425398D01*
X127553649Y-108423296D01*
X127561806Y-108417542D01*
X127587044Y-108397708D01*
X127689442Y-108308301D01*
X127729998Y-108265449D01*
X127818031Y-108152654D01*
X127846347Y-108109371D01*
X127919329Y-107974482D01*
X127937663Y-107933881D01*
X127994908Y-107778194D01*
X128005883Y-107741504D01*
X128046705Y-107566318D01*
X128050463Y-107547601D01*
X128054166Y-107525693D01*
X128056426Y-107509854D01*
X128063536Y-107448787D01*
X128064906Y-107433914D01*
X128070460Y-107352124D01*
X128070917Y-107343697D01*
X128074780Y-107248646D01*
X128074973Y-107242301D01*
X128077008Y-107141450D01*
X128077071Y-107135411D01*
X128077143Y-107036225D01*
X128077064Y-107029013D01*
X128075037Y-106938953D01*
X128074595Y-106927954D01*
X128070332Y-106854484D01*
X128069485Y-106843355D01*
X128068321Y-106830996D01*
X128067614Y-106824271D01*
X128057118Y-106733947D01*
X128056363Y-106727963D01*
X128042543Y-106626300D01*
X128041892Y-106621760D01*
X128025895Y-106515828D01*
X128025228Y-106511608D01*
X128021588Y-106489566D01*
X128008207Y-106408521D01*
X128007361Y-106403637D01*
X127990439Y-106310347D01*
X127989113Y-106303486D01*
X127989109Y-106303470D01*
X127989096Y-106303399D01*
X127973438Y-106227069D01*
X127971295Y-106217406D01*
X127963331Y-106184026D01*
X127957656Y-106163412D01*
X127922992Y-106052562D01*
X127917514Y-106035044D01*
X127917511Y-106035035D01*
X127917507Y-106035023D01*
X127903754Y-105999048D01*
X127856466Y-105895172D01*
X127830554Y-105849108D01*
X127776900Y-105770280D01*
X127727775Y-105714058D01*
X127668527Y-105660807D01*
X127668521Y-105660803D01*
X127668516Y-105660799D01*
X127582066Y-105605828D01*
X127582054Y-105605822D01*
X127518000Y-105578695D01*
X127511135Y-105575884D01*
X127487310Y-105571254D01*
X127399121Y-105554115D01*
X127399117Y-105554114D01*
X127393493Y-105553022D01*
X127393993Y-105550448D01*
X127339535Y-105528223D01*
X127299387Y-105471039D01*
X127292836Y-105431267D01*
X127292836Y-101754181D01*
X124302495Y-101754181D01*
X124235456Y-101734496D01*
X124189701Y-101681692D01*
X124179757Y-101612534D01*
X124208782Y-101548978D01*
X124209263Y-101548427D01*
X124222198Y-101533676D01*
X124233665Y-101522207D01*
X124398433Y-101377710D01*
X124411279Y-101367853D01*
X124593498Y-101246098D01*
X124607533Y-101237995D01*
X124804083Y-101141067D01*
X124819049Y-101134868D01*
X125025945Y-101064637D01*
X125026561Y-101064428D01*
X125042228Y-101060230D01*
X125257153Y-101017479D01*
X125273209Y-101015364D01*
X125478058Y-101001938D01*
X125495958Y-101000765D01*
X125504067Y-101000500D01*
X125539882Y-101000500D01*
X141260118Y-101000500D01*
X141295933Y-101000500D01*
X141304043Y-101000765D01*
G37*
G04 #@! TD.AperFunction*
G04 #@! TD*
G04 #@! TA.AperFunction,Conductor*
G04 #@! TO.N,/ENCODER_A_FILT*
G36*
X131315677Y-115919685D02*
G01*
X131336319Y-115936319D01*
X131563681Y-116163681D01*
X131597166Y-116225004D01*
X131600000Y-116251362D01*
X131600000Y-116666423D01*
X131580315Y-116733462D01*
X131527511Y-116779217D01*
X131458353Y-116789161D01*
X131410723Y-116771850D01*
X131392642Y-116760655D01*
X131392635Y-116760651D01*
X131297546Y-116723814D01*
X131202456Y-116686976D01*
X131001976Y-116649500D01*
X130798024Y-116649500D01*
X130597544Y-116686976D01*
X130597541Y-116686976D01*
X130597541Y-116686977D01*
X130407364Y-116760651D01*
X130407357Y-116760655D01*
X130233960Y-116868017D01*
X130233958Y-116868019D01*
X130083237Y-117005418D01*
X129960327Y-117168178D01*
X129869418Y-117350746D01*
X129852578Y-117409935D01*
X129815298Y-117469028D01*
X129751988Y-117498585D01*
X129733312Y-117500000D01*
X128424000Y-117500000D01*
X128356961Y-117480315D01*
X128311206Y-117427511D01*
X128300000Y-117376000D01*
X128300000Y-117024000D01*
X128319685Y-116956961D01*
X128372489Y-116911206D01*
X128424000Y-116900000D01*
X129300000Y-116900000D01*
X129663181Y-116536819D01*
X129724504Y-116503334D01*
X129750862Y-116500500D01*
X130028391Y-116500500D01*
X130028393Y-116500500D01*
X130155687Y-116466392D01*
X130269815Y-116400500D01*
X130733996Y-115936319D01*
X130795319Y-115902834D01*
X130821677Y-115900000D01*
X131248638Y-115900000D01*
X131315677Y-115919685D01*
G37*
G04 #@! TD.AperFunction*
G04 #@! TD*
M02*
