G04 #@! TF.GenerationSoftware,KiCad,Pcbnew,8.0.3*
G04 #@! TF.CreationDate,2024-06-16T14:55:05-05:00*
G04 #@! TF.ProjectId,Power Button Board,506f7765-7220-4427-9574-746f6e20426f,rev?*
G04 #@! TF.SameCoordinates,Original*
G04 #@! TF.FileFunction,Legend,Bot*
G04 #@! TF.FilePolarity,Positive*
%FSLAX46Y46*%
G04 Gerber Fmt 4.6, Leading zero omitted, Abs format (unit mm)*
G04 Created by KiCad (PCBNEW 8.0.3) date 2024-06-16 14:55:05*
%MOMM*%
%LPD*%
G01*
G04 APERTURE LIST*
%ADD10C,0.160000*%
%ADD11C,0.120000*%
G04 APERTURE END LIST*
D10*
X149766666Y-120129060D02*
X149814285Y-120176680D01*
X149814285Y-120176680D02*
X149957142Y-120224299D01*
X149957142Y-120224299D02*
X150052380Y-120224299D01*
X150052380Y-120224299D02*
X150195237Y-120176680D01*
X150195237Y-120176680D02*
X150290475Y-120081441D01*
X150290475Y-120081441D02*
X150338094Y-119986203D01*
X150338094Y-119986203D02*
X150385713Y-119795727D01*
X150385713Y-119795727D02*
X150385713Y-119652870D01*
X150385713Y-119652870D02*
X150338094Y-119462394D01*
X150338094Y-119462394D02*
X150290475Y-119367156D01*
X150290475Y-119367156D02*
X150195237Y-119271918D01*
X150195237Y-119271918D02*
X150052380Y-119224299D01*
X150052380Y-119224299D02*
X149957142Y-119224299D01*
X149957142Y-119224299D02*
X149814285Y-119271918D01*
X149814285Y-119271918D02*
X149766666Y-119319537D01*
X148814285Y-120224299D02*
X149385713Y-120224299D01*
X149099999Y-120224299D02*
X149099999Y-119224299D01*
X149099999Y-119224299D02*
X149195237Y-119367156D01*
X149195237Y-119367156D02*
X149290475Y-119462394D01*
X149290475Y-119462394D02*
X149385713Y-119510013D01*
X149524299Y-117433333D02*
X149048108Y-117100000D01*
X149524299Y-116861905D02*
X148524299Y-116861905D01*
X148524299Y-116861905D02*
X148524299Y-117242857D01*
X148524299Y-117242857D02*
X148571918Y-117338095D01*
X148571918Y-117338095D02*
X148619537Y-117385714D01*
X148619537Y-117385714D02*
X148714775Y-117433333D01*
X148714775Y-117433333D02*
X148857632Y-117433333D01*
X148857632Y-117433333D02*
X148952870Y-117385714D01*
X148952870Y-117385714D02*
X149000489Y-117338095D01*
X149000489Y-117338095D02*
X149048108Y-117242857D01*
X149048108Y-117242857D02*
X149048108Y-116861905D01*
X149524299Y-118385714D02*
X149524299Y-117814286D01*
X149524299Y-118100000D02*
X148524299Y-118100000D01*
X148524299Y-118100000D02*
X148667156Y-118004762D01*
X148667156Y-118004762D02*
X148762394Y-117909524D01*
X148762394Y-117909524D02*
X148810013Y-117814286D01*
X149078921Y-122556207D02*
X149078921Y-123270492D01*
X149078921Y-123270492D02*
X149126540Y-123413349D01*
X149126540Y-123413349D02*
X149221778Y-123508588D01*
X149221778Y-123508588D02*
X149364635Y-123556207D01*
X149364635Y-123556207D02*
X149459873Y-123556207D01*
X148078921Y-123556207D02*
X148650349Y-123556207D01*
X148364635Y-123556207D02*
X148364635Y-122556207D01*
X148364635Y-122556207D02*
X148459873Y-122699064D01*
X148459873Y-122699064D02*
X148555111Y-122794302D01*
X148555111Y-122794302D02*
X148650349Y-122841921D01*
D11*
G04 #@! TO.C,C1*
X149453733Y-120690000D02*
X149746267Y-120690000D01*
X149453733Y-121710000D02*
X149746267Y-121710000D01*
G04 #@! TO.C,R1*
X149977500Y-117854724D02*
X149977500Y-117345276D01*
X151022500Y-117854724D02*
X151022500Y-117345276D01*
G04 #@! TO.C,J1*
X147412794Y-124491908D02*
X148462794Y-124491908D01*
X147412794Y-127841908D02*
X147412794Y-124491908D01*
X148832794Y-129011908D02*
X148482794Y-129011908D01*
X149232794Y-128511908D02*
X148832794Y-129011908D01*
X149972794Y-123448355D02*
X150472794Y-123448355D01*
X150012794Y-128511908D02*
X149232794Y-128511908D01*
X150222794Y-123801908D02*
X149972794Y-123448355D01*
X150412794Y-129011908D02*
X150012794Y-128511908D01*
X150472794Y-123448355D02*
X150222794Y-123801908D01*
X150762794Y-129011908D02*
X150412794Y-129011908D01*
X150782794Y-124491908D02*
X150782794Y-124301908D01*
X151832794Y-124491908D02*
X150782794Y-124491908D01*
X151832794Y-127841908D02*
X151832794Y-124491908D01*
G04 #@! TD*
M02*
