%TF.GenerationSoftware,KiCad,Pcbnew,8.0.3*%
%TF.CreationDate,2024-06-14T06:39:36-05:00*%
%TF.ProjectId,Power Button Board,506f7765-7220-4427-9574-746f6e20426f,rev?*%
%TF.SameCoordinates,Original*%
%TF.FileFunction,Legend,Top*%
%TF.FilePolarity,Positive*%
%FSLAX46Y46*%
G04 Gerber Fmt 4.6, Leading zero omitted, Abs format (unit mm)*
G04 Created by KiCad (PCBNEW 8.0.3) date 2024-06-14 06:39:36*
%MOMM*%
%LPD*%
G01*
G04 APERTURE LIST*
%ADD10C,0.160000*%
%ADD11C,0.150000*%
G04 APERTURE END LIST*
D10*
X139966667Y-103906680D02*
X140109524Y-103954299D01*
X140109524Y-103954299D02*
X140347619Y-103954299D01*
X140347619Y-103954299D02*
X140442857Y-103906680D01*
X140442857Y-103906680D02*
X140490476Y-103859060D01*
X140490476Y-103859060D02*
X140538095Y-103763822D01*
X140538095Y-103763822D02*
X140538095Y-103668584D01*
X140538095Y-103668584D02*
X140490476Y-103573346D01*
X140490476Y-103573346D02*
X140442857Y-103525727D01*
X140442857Y-103525727D02*
X140347619Y-103478108D01*
X140347619Y-103478108D02*
X140157143Y-103430489D01*
X140157143Y-103430489D02*
X140061905Y-103382870D01*
X140061905Y-103382870D02*
X140014286Y-103335251D01*
X140014286Y-103335251D02*
X139966667Y-103240013D01*
X139966667Y-103240013D02*
X139966667Y-103144775D01*
X139966667Y-103144775D02*
X140014286Y-103049537D01*
X140014286Y-103049537D02*
X140061905Y-103001918D01*
X140061905Y-103001918D02*
X140157143Y-102954299D01*
X140157143Y-102954299D02*
X140395238Y-102954299D01*
X140395238Y-102954299D02*
X140538095Y-103001918D01*
X140871429Y-102954299D02*
X141109524Y-103954299D01*
X141109524Y-103954299D02*
X141300000Y-103240013D01*
X141300000Y-103240013D02*
X141490476Y-103954299D01*
X141490476Y-103954299D02*
X141728572Y-102954299D01*
X142633333Y-103954299D02*
X142061905Y-103954299D01*
X142347619Y-103954299D02*
X142347619Y-102954299D01*
X142347619Y-102954299D02*
X142252381Y-103097156D01*
X142252381Y-103097156D02*
X142157143Y-103192394D01*
X142157143Y-103192394D02*
X142061905Y-103240013D01*
D11*
%TO.C,SW1*%
X139900000Y-107339173D02*
X139900000Y-112660827D01*
X139900000Y-107339173D02*
G75*
G02*
X139900000Y-112660827I5600000J-2660827D01*
G01*
%TD*%
M02*
